<?xml version="1.0" encoding="UTF-8" standalone="no"?>
<svg xmlns="http://www.w3.org/2000/svg" version="1.1" x="0" y="0" width="61px" height="60px" viewBox="0 0 61 60">
 <polyline class="pointer" points="0,0 61,0 61,30, 0,30" fill="#fff"></polyline>
 <g transform="translate(-1,-2)" fill="#000" stroke="#000" stroke-linejoin="round" stroke-linecap="round" stroke-width="0.1">
  <path d="M21.661,21.239c-0.088-0.396-0.209-0.78-0.341-1.122l-0.572-1.419h-3.839l-0.572,1.419 c-0.165,0.418-0.264,0.737-0.341,1.122h-1.145c0.22-0.362,0.297-0.527,0.594-1.265l2.464-6.073 c0.209-0.517,0.297-0.77,0.352-1.022h1.111c0.044,0.209,0.099,0.352,0.374,1.022l2.464,6.073c0.275,0.66,0.418,0.979,0.583,1.265 H21.661z M19.065,14.309c-0.033-0.088-0.033-0.099-0.242-0.704c-0.055,0.165-0.099,0.286-0.121,0.363 c-0.066,0.176-0.099,0.297-0.121,0.341l-1.408,3.631h3.311L19.065,14.309z"></path>
  <path d="M29.504,20.04c0.627,0.793,0.737,0.914,1.034,1.199h-1.276c-0.154-0.274-0.341-0.561-0.649-0.945l-2.597-3.345 l-1.287,1.265v1.794c0,0.55,0.022,0.847,0.088,1.231h-1.023c0.066-0.352,0.088-0.726,0.088-1.231V14.11 c0-0.506-0.022-0.825-0.088-1.231h1.023c-0.066,0.352-0.088,0.692-0.088,1.231v3.048l3.345-3.366 c0.418-0.419,0.605-0.639,0.759-0.913h1.298c-0.198,0.187-0.198,0.187-0.286,0.274c-0.176,0.176-0.341,0.33-0.484,0.484 c-0.198,0.209-0.33,0.341-0.363,0.374l-2.376,2.365L29.504,20.04z"></path>
  <path d="M32.616,12.879c-0.066,0.362-0.099,0.77-0.099,1.231v5.897c0,0.483,0.033,0.857,0.099,1.231h-1.045 c0.066-0.406,0.088-0.682,0.088-1.231V14.11c0-0.55-0.022-0.836-0.088-1.231H32.616z"></path>
  <path d="M35.52,21.239c-0.484,0-0.825,0.012-1.21,0.033c0.077-0.439,0.099-0.726,0.099-1.364v-5.886 c0-0.473-0.022-0.77-0.088-1.166c0.341,0.022,0.562,0.022,1.199,0.022h2.343c1.596,0,2.487,0.726,2.487,2.023 c0,0.639-0.198,1.122-0.594,1.475c-0.231,0.198-0.429,0.297-0.869,0.44c0.506,0.099,0.77,0.209,1.067,0.462 c0.451,0.385,0.682,0.946,0.682,1.65c0,1.474-0.968,2.31-2.651,2.31H35.52z M37.853,16.465c1.023,0,1.628-0.539,1.628-1.463 c0-0.913-0.55-1.375-1.64-1.375h-2.585v2.838H37.853z M35.256,20.491h2.651c1.199,0,1.837-0.571,1.837-1.628 c0-1.089-0.638-1.65-1.859-1.65h-2.629V20.491z"></path>
  <path d="M48.259,21.239c-0.088-0.396-0.209-0.78-0.341-1.122l-0.572-1.419h-3.839l-0.572,1.419 c-0.165,0.418-0.264,0.737-0.341,1.122h-1.145c0.22-0.362,0.297-0.527,0.594-1.265l2.464-6.073 c0.209-0.517,0.297-0.77,0.352-1.022h1.111c0.044,0.209,0.099,0.352,0.374,1.022l2.464,6.073c0.275,0.66,0.418,0.979,0.583,1.265 H48.259z M45.663,14.309c-0.033-0.088-0.033-0.099-0.242-0.704c-0.055,0.165-0.099,0.286-0.121,0.363 c-0.066,0.176-0.099,0.297-0.121,0.341l-1.408,3.631h3.311L45.663,14.309z"></path>
 </g>
 <polyline class="pointer" points="0,30 26,30 30,34 34,30 61,30 61,60, 0,60" fill="#fff" fill-opacity="0.8"></polyline>
 <g transform="translate(-1,28)" fill="#000" stroke="#000" stroke-linejoin="round" stroke-linecap="round" stroke-width="0.5">
  <path d="M21.661,21.239c-0.088-0.396-0.209-0.78-0.341-1.122l-0.572-1.419h-3.839l-0.572,1.419 c-0.165,0.418-0.264,0.737-0.341,1.122h-1.145c0.22-0.362,0.297-0.527,0.594-1.265l2.464-6.073 c0.209-0.517,0.297-0.77,0.352-1.022h1.111c0.044,0.209,0.099,0.352,0.374,1.022l2.464,6.073c0.275,0.66,0.418,0.979,0.583,1.265 H21.661z M19.065,14.309c-0.033-0.088-0.033-0.099-0.242-0.704c-0.055,0.165-0.099,0.286-0.121,0.363 c-0.066,0.176-0.099,0.297-0.121,0.341l-1.408,3.631h3.311L19.065,14.309z"></path>
  <path d="M29.504,20.04c0.627,0.793,0.737,0.914,1.034,1.199h-1.276c-0.154-0.274-0.341-0.561-0.649-0.945l-2.597-3.345 l-1.287,1.265v1.794c0,0.55,0.022,0.847,0.088,1.231h-1.023c0.066-0.352,0.088-0.726,0.088-1.231V14.11 c0-0.506-0.022-0.825-0.088-1.231h1.023c-0.066,0.352-0.088,0.692-0.088,1.231v3.048l3.345-3.366 c0.418-0.419,0.605-0.639,0.759-0.913h1.298c-0.198,0.187-0.198,0.187-0.286,0.274c-0.176,0.176-0.341,0.33-0.484,0.484 c-0.198,0.209-0.33,0.341-0.363,0.374l-2.376,2.365L29.504,20.04z"></path>
  <path d="M32.616,12.879c-0.066,0.362-0.099,0.77-0.099,1.231v5.897c0,0.483,0.033,0.857,0.099,1.231h-1.045 c0.066-0.406,0.088-0.682,0.088-1.231V14.11c0-0.55-0.022-0.836-0.088-1.231H32.616z"></path>
  <path d="M35.52,21.239c-0.484,0-0.825,0.012-1.21,0.033c0.077-0.439,0.099-0.726,0.099-1.364v-5.886 c0-0.473-0.022-0.77-0.088-1.166c0.341,0.022,0.562,0.022,1.199,0.022h2.343c1.596,0,2.487,0.726,2.487,2.023 c0,0.639-0.198,1.122-0.594,1.475c-0.231,0.198-0.429,0.297-0.869,0.44c0.506,0.099,0.77,0.209,1.067,0.462 c0.451,0.385,0.682,0.946,0.682,1.65c0,1.474-0.968,2.31-2.651,2.31H35.52z M37.853,16.465c1.023,0,1.628-0.539,1.628-1.463 c0-0.913-0.55-1.375-1.64-1.375h-2.585v2.838H37.853z M35.256,20.491h2.651c1.199,0,1.837-0.571,1.837-1.628 c0-1.089-0.638-1.65-1.859-1.65h-2.629V20.491z"></path>
  <path d="M48.259,21.239c-0.088-0.396-0.209-0.78-0.341-1.122l-0.572-1.419h-3.839l-0.572,1.419 c-0.165,0.418-0.264,0.737-0.341,1.122h-1.145c0.22-0.362,0.297-0.527,0.594-1.265l2.464-6.073 c0.209-0.517,0.297-0.77,0.352-1.022h1.111c0.044,0.209,0.099,0.352,0.374,1.022l2.464,6.073c0.275,0.66,0.418,0.979,0.583,1.265 H48.259z M45.663,14.309c-0.033-0.088-0.033-0.099-0.242-0.704c-0.055,0.165-0.099,0.286-0.121,0.363 c-0.066,0.176-0.099,0.297-0.121,0.341l-1.408,3.631h3.311L45.663,14.309z"></path>
 </g>
</svg>
