<?xml version="1.0" encoding="UTF-8" standalone="no"?>
<svg xmlns="http://www.w3.org/2000/svg" version="1.1" x="0" y="0" width="61px" height="60px" viewBox="0 0 61 60">
 <polyline class="pointer" points="0,0 61,0 61,30, 0,30" fill="#fff"></polyline>
 <g transform="translate(-1,-2)" fill="#000" stroke="#000" stroke-linejoin="round" stroke-linecap="round" stroke-width="0.1">
  <path d="M17.444,21.383c-0.088-0.396-0.209-0.78-0.341-1.122l-0.572-1.419h-3.839l-0.572,1.419 c-0.165,0.418-0.265,0.737-0.341,1.122h-1.145c0.22-0.362,0.297-0.527,0.594-1.265l2.465-6.073 c0.209-0.517,0.297-0.77,0.352-1.022h1.111c0.044,0.209,0.1,0.352,0.374,1.022l2.465,6.073c0.274,0.66,0.418,0.979,0.583,1.265 H17.444z M14.849,14.452c-0.033-0.088-0.033-0.099-0.242-0.704c-0.055,0.165-0.1,0.286-0.121,0.363 c-0.066,0.176-0.099,0.297-0.121,0.341l-1.408,3.631h3.312L14.849,14.452z"></path>
  <path d="M26.872,22.065c-0.198-0.275-0.319-0.407-0.958-1.034c-0.615,0.363-1.177,0.517-1.936,0.517 c-2.311,0-3.796-1.694-3.796-4.334c0-2.651,1.496-4.356,3.807-4.356s3.796,1.693,3.796,4.334c0,0.792-0.133,1.496-0.396,2.112 c-0.209,0.495-0.396,0.76-0.88,1.276c0.506,0.495,0.648,0.627,0.957,0.869L26.872,22.065z M25.034,19.073 c0.188,0.22,0.33,0.385,0.88,0.935c0.342-0.363,0.463-0.55,0.616-0.902c0.231-0.571,0.353-1.199,0.353-1.925 c0-2.167-1.122-3.554-2.883-3.554c-1.771,0-2.926,1.408-2.926,3.575c0,2.179,1.154,3.576,2.959,3.576 c0.495,0,0.892-0.1,1.298-0.33c-0.374-0.363-0.571-0.539-0.901-0.781L25.034,19.073z"></path>
  <path d="M36.915,13.022c-0.066,0.385-0.088,0.692-0.088,1.243v4.081c0,0.968-0.298,1.771-0.848,2.344 c-0.55,0.561-1.43,0.869-2.497,0.869c-1.078,0-1.959-0.309-2.509-0.892c-0.539-0.561-0.813-1.354-0.813-2.321v-4.06 c0-0.561-0.022-0.88-0.089-1.265h1.034c-0.065,0.352-0.088,0.682-0.088,1.265v4.026c0,1.585,0.902,2.486,2.476,2.486 c0.847,0,1.519-0.264,1.926-0.736c0.352-0.43,0.55-1.046,0.55-1.75v-4.026c0-0.55-0.022-0.88-0.088-1.265H36.915z"></path>
  <path d="M46.793,17.202c0,2.651-1.485,4.346-3.807,4.346s-3.796-1.694-3.796-4.346c0-2.64,1.496-4.345,3.807-4.345 C45.318,12.857,46.793,14.551,46.793,17.202z M44.911,20.019c0.627-0.615,0.979-1.639,0.979-2.816c0-1.21-0.33-2.178-0.969-2.816 c-0.506-0.494-1.166-0.759-1.925-0.759c-1.761,0-2.915,1.408-2.915,3.564s1.166,3.576,2.926,3.576 C43.768,20.768,44.416,20.514,44.911,20.019z"></path>
  <path d="M53.92,15.189c-0.088-0.44-0.176-0.66-0.385-0.913c-0.352-0.418-0.913-0.639-1.628-0.639 c-1.134,0-1.926,0.605-1.926,1.497c0,0.571,0.309,0.979,0.957,1.243c0.297,0.12,0.309,0.12,1.573,0.396 c1.761,0.374,2.465,1.045,2.465,2.321c0,1.552-1.067,2.432-2.96,2.432c-1.231,0-2.145-0.363-2.651-1.045 c-0.286-0.386-0.406-0.727-0.517-1.452l0.957-0.121c0.033,0.527,0.11,0.792,0.341,1.089c0.363,0.484,1.023,0.759,1.838,0.759 c1.309,0,2.101-0.616,2.101-1.639c0-0.539-0.22-0.946-0.638-1.178c-0.363-0.209-0.484-0.242-1.815-0.539 c-0.693-0.143-1.122-0.297-1.496-0.506c-0.683-0.385-1.023-0.968-1.023-1.738c0-1.386,1.111-2.277,2.816-2.277 c1.09,0,1.937,0.353,2.432,1.013c0.253,0.329,0.363,0.604,0.484,1.166L53.92,15.189z"></path>
 </g>
 <polyline class="pointer" points="0,30 26,30 30,34 34,30 61,30 61,60, 0,60" fill="#fff" fill-opacity="0.8"></polyline>
 <g transform="translate(-1,28)" fill="#000" stroke="#000" stroke-linejoin="round" stroke-linecap="round" stroke-width="0.5">
  <path d="M17.444,21.383c-0.088-0.396-0.209-0.78-0.341-1.122l-0.572-1.419h-3.839l-0.572,1.419 c-0.165,0.418-0.265,0.737-0.341,1.122h-1.145c0.22-0.362,0.297-0.527,0.594-1.265l2.465-6.073 c0.209-0.517,0.297-0.77,0.352-1.022h1.111c0.044,0.209,0.1,0.352,0.374,1.022l2.465,6.073c0.274,0.66,0.418,0.979,0.583,1.265 H17.444z M14.849,14.452c-0.033-0.088-0.033-0.099-0.242-0.704c-0.055,0.165-0.1,0.286-0.121,0.363 c-0.066,0.176-0.099,0.297-0.121,0.341l-1.408,3.631h3.312L14.849,14.452z"></path>
  <path d="M26.872,22.065c-0.198-0.275-0.319-0.407-0.958-1.034c-0.615,0.363-1.177,0.517-1.936,0.517 c-2.311,0-3.796-1.694-3.796-4.334c0-2.651,1.496-4.356,3.807-4.356s3.796,1.693,3.796,4.334c0,0.792-0.133,1.496-0.396,2.112 c-0.209,0.495-0.396,0.76-0.88,1.276c0.506,0.495,0.648,0.627,0.957,0.869L26.872,22.065z M25.034,19.073 c0.188,0.22,0.33,0.385,0.88,0.935c0.342-0.363,0.463-0.55,0.616-0.902c0.231-0.571,0.353-1.199,0.353-1.925 c0-2.167-1.122-3.554-2.883-3.554c-1.771,0-2.926,1.408-2.926,3.575c0,2.179,1.154,3.576,2.959,3.576 c0.495,0,0.892-0.1,1.298-0.33c-0.374-0.363-0.571-0.539-0.901-0.781L25.034,19.073z"></path>
  <path d="M36.915,13.022c-0.066,0.385-0.088,0.692-0.088,1.243v4.081c0,0.968-0.298,1.771-0.848,2.344 c-0.55,0.561-1.43,0.869-2.497,0.869c-1.078,0-1.959-0.309-2.509-0.892c-0.539-0.561-0.813-1.354-0.813-2.321v-4.06 c0-0.561-0.022-0.88-0.089-1.265h1.034c-0.065,0.352-0.088,0.682-0.088,1.265v4.026c0,1.585,0.902,2.486,2.476,2.486 c0.847,0,1.519-0.264,1.926-0.736c0.352-0.43,0.55-1.046,0.55-1.75v-4.026c0-0.55-0.022-0.88-0.088-1.265H36.915z"></path>
  <path d="M46.793,17.202c0,2.651-1.485,4.346-3.807,4.346s-3.796-1.694-3.796-4.346c0-2.64,1.496-4.345,3.807-4.345 C45.318,12.857,46.793,14.551,46.793,17.202z M44.911,20.019c0.627-0.615,0.979-1.639,0.979-2.816c0-1.21-0.33-2.178-0.969-2.816 c-0.506-0.494-1.166-0.759-1.925-0.759c-1.761,0-2.915,1.408-2.915,3.564s1.166,3.576,2.926,3.576 C43.768,20.768,44.416,20.514,44.911,20.019z"></path>
  <path d="M53.92,15.189c-0.088-0.44-0.176-0.66-0.385-0.913c-0.352-0.418-0.913-0.639-1.628-0.639 c-1.134,0-1.926,0.605-1.926,1.497c0,0.571,0.309,0.979,0.957,1.243c0.297,0.12,0.309,0.12,1.573,0.396 c1.761,0.374,2.465,1.045,2.465,2.321c0,1.552-1.067,2.432-2.96,2.432c-1.231,0-2.145-0.363-2.651-1.045 c-0.286-0.386-0.406-0.727-0.517-1.452l0.957-0.121c0.033,0.527,0.11,0.792,0.341,1.089c0.363,0.484,1.023,0.759,1.838,0.759 c1.309,0,2.101-0.616,2.101-1.639c0-0.539-0.22-0.946-0.638-1.178c-0.363-0.209-0.484-0.242-1.815-0.539 c-0.693-0.143-1.122-0.297-1.496-0.506c-0.683-0.385-1.023-0.968-1.023-1.738c0-1.386,1.111-2.277,2.816-2.277 c1.09,0,1.937,0.353,2.432,1.013c0.253,0.329,0.363,0.604,0.484,1.166L53.92,15.189z"></path>
 </g>
</svg>
