<?xml version="1.0" encoding="UTF-8" standalone="no"?>
<svg xmlns="http://www.w3.org/2000/svg" version="1.1" x="0" y="0" width="61px" height="60px" viewBox="0 0 61 60">
 <polyline class="pointer" points="0,0 61,0 61,30, 0,30" fill="#fff"></polyline>
 <g transform="translate(-1,-2)" fill="#000" stroke="#000" stroke-linejoin="round" stroke-linecap="round" stroke-width="0.1">
  <path d="M18.651,19.603c-0.429,0.385-0.638,0.527-1.012,0.671c-0.374,0.143-0.77,0.22-1.144,0.22 c-1.21,0-1.947-0.627-1.947-1.672c0-0.881,0.55-1.519,1.573-1.805c0.649-0.187,1.177-0.253,2.53-0.286v-0.638 c0-0.748-0.473-1.134-1.386-1.134c-0.605,0-1.056,0.154-1.364,0.474c-0.143,0.154-0.231,0.308-0.341,0.638l-0.858-0.187 c0.198-0.506,0.341-0.737,0.616-0.979c0.451-0.418,1.111-0.627,1.936-0.627c1.453,0,2.201,0.616,2.201,1.805v3.091 c0,0.495,0.022,0.771,0.088,1.21h-0.891V19.603z M18.651,17.38c-1.309,0.033-1.937,0.11-2.432,0.319 c-0.561,0.23-0.836,0.604-0.836,1.133c0,0.605,0.451,0.99,1.166,0.99c0.638,0,1.332-0.309,1.76-0.781 c0.253-0.275,0.341-0.506,0.341-0.946V17.38z"></path>
  <path d="M24.624,15.301c-0.418-0.133-0.616-0.165-0.891-0.165c-0.561,0-1.023,0.23-1.354,0.671 c-0.264,0.341-0.363,0.605-0.407,1.1v2.245c0,0.495,0.022,0.803,0.077,1.231h-0.99c0.055-0.506,0.077-0.792,0.077-1.243v-3.443 c0-0.55-0.022-0.847-0.077-1.243h0.913v0.627c0,0.088,0,0.253-0.011,0.33c0.209-0.341,0.374-0.517,0.605-0.671 c0.418-0.274,0.792-0.385,1.32-0.385c0.33,0,0.517,0.021,0.979,0.099L24.624,15.301z"></path>
  <path d="M29.354,15.301c-0.418-0.133-0.616-0.165-0.891-0.165c-0.561,0-1.023,0.23-1.354,0.671 c-0.264,0.341-0.363,0.605-0.407,1.1v2.245c0,0.495,0.022,0.803,0.077,1.231h-0.99c0.055-0.506,0.077-0.792,0.077-1.243v-3.443 c0-0.55-0.022-0.847-0.077-1.243h0.913v0.627c0,0.088,0,0.253-0.011,0.33c0.209-0.341,0.374-0.517,0.605-0.671 c0.418-0.274,0.792-0.385,1.32-0.385c0.33,0,0.517,0.021,0.979,0.099L29.354,15.301z"></path>
  <path d="M30.244,17.424c0-1.903,1.145-3.113,2.938-3.113c1.793,0,2.927,1.21,2.927,3.103c0,1.881-1.145,3.113-2.916,3.113 C31.388,20.526,30.244,19.327,30.244,17.424z M31.091,17.401c0,1.497,0.803,2.41,2.09,2.41s2.08-0.913,2.08-2.398 s-0.792-2.409-2.058-2.409C31.894,15.004,31.091,15.917,31.091,17.401z"></path>
  <path d="M42.355,20.383c-0.044-0.23-0.121-0.517-0.22-0.825l-1.078-3.201c-0.022-0.055-0.077-0.286-0.187-0.693 c-0.088,0.309-0.176,0.605-0.209,0.716l-1.067,3.179c-0.11,0.319-0.198,0.639-0.231,0.825h-0.77 c-0.066-0.274-0.066-0.297-0.242-0.836l-1.177-3.795c-0.132-0.407-0.308-0.925-0.44-1.299h1.012 c0.022,0.341,0.099,0.715,0.253,1.199l0.803,2.739c0.055,0.188,0.121,0.418,0.198,0.804c0.066-0.253,0.198-0.693,0.231-0.792 l1.045-3.114c0.121-0.33,0.198-0.638,0.22-0.836h0.737c0.033,0.198,0.11,0.506,0.22,0.836l1.056,3.169 c0.033,0.099,0.099,0.341,0.143,0.495c0.044,0.165,0.044,0.165,0.066,0.242c0.099-0.43,0.154-0.683,0.176-0.748l0.825-2.795 c0.143-0.473,0.22-0.88,0.242-1.199h1.001c-0.088,0.231-0.231,0.671-0.429,1.299l-1.188,3.806 c-0.143,0.44-0.187,0.605-0.231,0.825H42.355z"></path>
  <path d="M46.447,18.623c0.077,0.407,0.165,0.605,0.385,0.803c0.275,0.253,0.715,0.386,1.276,0.386 c0.957,0,1.562-0.407,1.562-1.057c0-0.308-0.11-0.539-0.341-0.682c-0.264-0.165-0.484-0.231-1.298-0.396 c-0.88-0.187-1.254-0.319-1.628-0.572c-0.385-0.264-0.594-0.671-0.594-1.155c0-0.396,0.165-0.77,0.473-1.066 c0.385-0.374,0.979-0.572,1.716-0.572c0.748,0,1.331,0.176,1.727,0.528c0.286,0.241,0.44,0.494,0.583,1.001l-0.869,0.143 c-0.066-0.297-0.121-0.429-0.275-0.583c-0.253-0.275-0.649-0.418-1.144-0.418c-0.803,0-1.375,0.407-1.375,0.99 c0,0.253,0.132,0.473,0.375,0.604c0.253,0.144,0.539,0.231,1.221,0.375c1.067,0.241,1.419,0.374,1.75,0.627 c0.341,0.274,0.528,0.692,0.528,1.144c0,1.101-0.935,1.782-2.442,1.782c-1.001,0-1.771-0.297-2.178-0.857 c-0.165-0.231-0.242-0.418-0.352-0.869L46.447,18.623z"></path>
 </g>
 <polyline class="pointer" points="0,30 26,30 30,34 34,30 61,30 61,60, 0,60" fill="#fff" fill-opacity="0.8"></polyline>
 <g transform="translate(-1,28)" fill="#000" stroke="#000" stroke-linejoin="round" stroke-linecap="round" stroke-width="0.5">
  <path d="M18.651,19.603c-0.429,0.385-0.638,0.527-1.012,0.671c-0.374,0.143-0.77,0.22-1.144,0.22 c-1.21,0-1.947-0.627-1.947-1.672c0-0.881,0.55-1.519,1.573-1.805c0.649-0.187,1.177-0.253,2.53-0.286v-0.638 c0-0.748-0.473-1.134-1.386-1.134c-0.605,0-1.056,0.154-1.364,0.474c-0.143,0.154-0.231,0.308-0.341,0.638l-0.858-0.187 c0.198-0.506,0.341-0.737,0.616-0.979c0.451-0.418,1.111-0.627,1.936-0.627c1.453,0,2.201,0.616,2.201,1.805v3.091 c0,0.495,0.022,0.771,0.088,1.21h-0.891V19.603z M18.651,17.38c-1.309,0.033-1.937,0.11-2.432,0.319 c-0.561,0.23-0.836,0.604-0.836,1.133c0,0.605,0.451,0.99,1.166,0.99c0.638,0,1.332-0.309,1.76-0.781 c0.253-0.275,0.341-0.506,0.341-0.946V17.38z"></path>
  <path d="M24.624,15.301c-0.418-0.133-0.616-0.165-0.891-0.165c-0.561,0-1.023,0.23-1.354,0.671 c-0.264,0.341-0.363,0.605-0.407,1.1v2.245c0,0.495,0.022,0.803,0.077,1.231h-0.99c0.055-0.506,0.077-0.792,0.077-1.243v-3.443 c0-0.55-0.022-0.847-0.077-1.243h0.913v0.627c0,0.088,0,0.253-0.011,0.33c0.209-0.341,0.374-0.517,0.605-0.671 c0.418-0.274,0.792-0.385,1.32-0.385c0.33,0,0.517,0.021,0.979,0.099L24.624,15.301z"></path>
  <path d="M29.354,15.301c-0.418-0.133-0.616-0.165-0.891-0.165c-0.561,0-1.023,0.23-1.354,0.671 c-0.264,0.341-0.363,0.605-0.407,1.1v2.245c0,0.495,0.022,0.803,0.077,1.231h-0.99c0.055-0.506,0.077-0.792,0.077-1.243v-3.443 c0-0.55-0.022-0.847-0.077-1.243h0.913v0.627c0,0.088,0,0.253-0.011,0.33c0.209-0.341,0.374-0.517,0.605-0.671 c0.418-0.274,0.792-0.385,1.32-0.385c0.33,0,0.517,0.021,0.979,0.099L29.354,15.301z"></path>
  <path d="M30.244,17.424c0-1.903,1.145-3.113,2.938-3.113c1.793,0,2.927,1.21,2.927,3.103c0,1.881-1.145,3.113-2.916,3.113 C31.388,20.526,30.244,19.327,30.244,17.424z M31.091,17.401c0,1.497,0.803,2.41,2.09,2.41s2.08-0.913,2.08-2.398 s-0.792-2.409-2.058-2.409C31.894,15.004,31.091,15.917,31.091,17.401z"></path>
  <path d="M42.355,20.383c-0.044-0.23-0.121-0.517-0.22-0.825l-1.078-3.201c-0.022-0.055-0.077-0.286-0.187-0.693 c-0.088,0.309-0.176,0.605-0.209,0.716l-1.067,3.179c-0.11,0.319-0.198,0.639-0.231,0.825h-0.77 c-0.066-0.274-0.066-0.297-0.242-0.836l-1.177-3.795c-0.132-0.407-0.308-0.925-0.44-1.299h1.012 c0.022,0.341,0.099,0.715,0.253,1.199l0.803,2.739c0.055,0.188,0.121,0.418,0.198,0.804c0.066-0.253,0.198-0.693,0.231-0.792 l1.045-3.114c0.121-0.33,0.198-0.638,0.22-0.836h0.737c0.033,0.198,0.11,0.506,0.22,0.836l1.056,3.169 c0.033,0.099,0.099,0.341,0.143,0.495c0.044,0.165,0.044,0.165,0.066,0.242c0.099-0.43,0.154-0.683,0.176-0.748l0.825-2.795 c0.143-0.473,0.22-0.88,0.242-1.199h1.001c-0.088,0.231-0.231,0.671-0.429,1.299l-1.188,3.806 c-0.143,0.44-0.187,0.605-0.231,0.825H42.355z"></path>
  <path d="M46.447,18.623c0.077,0.407,0.165,0.605,0.385,0.803c0.275,0.253,0.715,0.386,1.276,0.386 c0.957,0,1.562-0.407,1.562-1.057c0-0.308-0.11-0.539-0.341-0.682c-0.264-0.165-0.484-0.231-1.298-0.396 c-0.88-0.187-1.254-0.319-1.628-0.572c-0.385-0.264-0.594-0.671-0.594-1.155c0-0.396,0.165-0.77,0.473-1.066 c0.385-0.374,0.979-0.572,1.716-0.572c0.748,0,1.331,0.176,1.727,0.528c0.286,0.241,0.44,0.494,0.583,1.001l-0.869,0.143 c-0.066-0.297-0.121-0.429-0.275-0.583c-0.253-0.275-0.649-0.418-1.144-0.418c-0.803,0-1.375,0.407-1.375,0.99 c0,0.253,0.132,0.473,0.375,0.604c0.253,0.144,0.539,0.231,1.221,0.375c1.067,0.241,1.419,0.374,1.75,0.627 c0.341,0.274,0.528,0.692,0.528,1.144c0,1.101-0.935,1.782-2.442,1.782c-1.001,0-1.771-0.297-2.178-0.857 c-0.165-0.231-0.242-0.418-0.352-0.869L46.447,18.623z"></path>
 </g>
</svg>
