<?xml version="1.0" encoding="UTF-8" standalone="no"?>
<svg xmlns="http://www.w3.org/2000/svg" version="1.1" x="0" y="0" width="61px" height="60px" viewBox="0 0 61 60">
 <polyline class="pointer" points="0,0 61,0 61,30, 0,30" fill="#fff"></polyline>
 <g transform="translate(-1,-2)" fill="#000" stroke="#000" stroke-linejoin="round" stroke-linecap="round" stroke-width="0.1">
  <path d="M30.034,21.239c-0.088-0.396-0.209-0.78-0.341-1.122l-0.572-1.419h-3.839l-0.572,1.419 c-0.165,0.418-0.264,0.737-0.341,1.122h-1.145c0.22-0.362,0.297-0.527,0.594-1.265l2.464-6.073 c0.209-0.517,0.297-0.77,0.352-1.022h1.111c0.044,0.209,0.099,0.352,0.374,1.022l2.464,6.073c0.275,0.66,0.418,0.979,0.583,1.265 H30.034z M27.438,14.309c-0.033-0.088-0.033-0.099-0.242-0.704c-0.055,0.165-0.099,0.286-0.121,0.363 c-0.066,0.176-0.099,0.297-0.121,0.341l-1.408,3.631h3.311L27.438,14.309z"></path>
  <path d="M34.247,19.634c0.044,0.121,0.154,0.439,0.264,0.77c0.11-0.341,0.176-0.539,0.253-0.77l2.068-5.633 c0.198-0.518,0.286-0.837,0.319-1.122h1.144c-0.176,0.297-0.286,0.561-0.561,1.275l-2.354,6.062 c-0.187,0.483-0.286,0.792-0.341,1.022h-1.067c-0.044-0.23-0.121-0.45-0.352-1.022l-2.354-6.062 c-0.242-0.638-0.429-1.045-0.562-1.275h1.133c0.066,0.352,0.176,0.715,0.319,1.122L34.247,19.634z"></path>
 </g>
 <polyline class="pointer" points="0,30 26,30 30,34 34,30 61,30 61,60, 0,60" fill="#fff" fill-opacity="0.8"></polyline>
 <g transform="translate(-1,28)" fill="#000" stroke="#000" stroke-linejoin="round" stroke-linecap="round" stroke-width="0.5">
  <path d="M30.034,21.239c-0.088-0.396-0.209-0.78-0.341-1.122l-0.572-1.419h-3.839l-0.572,1.419 c-0.165,0.418-0.264,0.737-0.341,1.122h-1.145c0.22-0.362,0.297-0.527,0.594-1.265l2.464-6.073 c0.209-0.517,0.297-0.77,0.352-1.022h1.111c0.044,0.209,0.099,0.352,0.374,1.022l2.464,6.073c0.275,0.66,0.418,0.979,0.583,1.265 H30.034z M27.438,14.309c-0.033-0.088-0.033-0.099-0.242-0.704c-0.055,0.165-0.099,0.286-0.121,0.363 c-0.066,0.176-0.099,0.297-0.121,0.341l-1.408,3.631h3.311L27.438,14.309z"></path>
  <path d="M34.247,19.634c0.044,0.121,0.154,0.439,0.264,0.77c0.11-0.341,0.176-0.539,0.253-0.77l2.068-5.633 c0.198-0.518,0.286-0.837,0.319-1.122h1.144c-0.176,0.297-0.286,0.561-0.561,1.275l-2.354,6.062 c-0.187,0.483-0.286,0.792-0.341,1.022h-1.067c-0.044-0.23-0.121-0.45-0.352-1.022l-2.354-6.062 c-0.242-0.638-0.429-1.045-0.562-1.275h1.133c0.066,0.352,0.176,0.715,0.319,1.122L34.247,19.634z"></path>
 </g>
</svg>
