<?xml version="1.0" encoding="UTF-8" standalone="no"?>
<svg xmlns="http://www.w3.org/2000/svg" version="1.1" x="0" y="0" width="61px" height="60px" viewBox="0 0 61 60">
 <polyline class="pointer" points="0,0 61,0 61,30, 0,30" fill="#fff"></polyline>
 <g transform="translate(-1,-2)" fill="#000" stroke="#000" stroke-linejoin="round" stroke-linecap="round" stroke-width="0.1">
  <path d="M29.469,15.255c-0.165-0.474-0.286-0.704-0.517-0.968c-0.44-0.518-1.101-0.793-1.903-0.793 c-1.782,0-2.904,1.364-2.904,3.554c0,2.179,1.133,3.564,2.904,3.564c0.869,0,1.605-0.33,2.057-0.924 c0.231-0.319,0.342-0.594,0.44-1.101l0.913,0.221c-0.187,0.648-0.33,0.957-0.594,1.309c-0.616,0.825-1.617,1.276-2.85,1.276 c-1.057,0-1.947-0.33-2.574-0.968c-0.771-0.771-1.188-1.97-1.188-3.345c0-1.419,0.44-2.618,1.254-3.422 c0.639-0.615,1.475-0.935,2.52-0.935c1.034,0,1.87,0.297,2.465,0.891c0.385,0.374,0.594,0.704,0.857,1.387L29.469,15.255z"></path>
  <path d="M35.694,20.459c-0.429,0.385-0.638,0.527-1.012,0.671c-0.374,0.143-0.771,0.22-1.145,0.22 c-1.21,0-1.947-0.627-1.947-1.672c0-0.881,0.55-1.519,1.573-1.805c0.649-0.187,1.177-0.253,2.53-0.286v-0.638 c0-0.748-0.473-1.134-1.386-1.134c-0.605,0-1.057,0.154-1.364,0.474c-0.144,0.154-0.231,0.308-0.341,0.638l-0.858-0.187 c0.198-0.506,0.341-0.737,0.616-0.979c0.451-0.418,1.111-0.627,1.936-0.627c1.452,0,2.201,0.616,2.201,1.805v3.091 c0,0.495,0.021,0.771,0.088,1.21h-0.892V20.459z M35.694,18.236c-1.309,0.033-1.937,0.11-2.432,0.319 c-0.561,0.23-0.836,0.604-0.836,1.133c0,0.605,0.451,0.99,1.166,0.99c0.639,0,1.332-0.309,1.761-0.781 c0.253-0.275,0.341-0.506,0.341-0.946V18.236z"></path>
  <path d="M41.668,16.157c-0.418-0.133-0.616-0.165-0.892-0.165c-0.561,0-1.023,0.23-1.354,0.671 c-0.264,0.341-0.362,0.605-0.406,1.1v2.245c0,0.495,0.021,0.803,0.077,1.231h-0.99c0.055-0.506,0.076-0.792,0.076-1.243v-3.443 c0-0.55-0.021-0.847-0.076-1.243h0.913v0.627c0,0.088,0,0.253-0.012,0.33c0.209-0.341,0.374-0.517,0.605-0.671 c0.418-0.274,0.792-0.385,1.32-0.385c0.33,0,0.517,0.021,0.979,0.099L41.668,16.157z"></path>
 </g>
 <polyline class="pointer" points="0,30 26,30 30,34 34,30 61,30 61,60, 0,60" fill="#fff" fill-opacity="0.8"></polyline>
 <g transform="translate(-1,28)" fill="#000" stroke="#000" stroke-linejoin="round" stroke-linecap="round" stroke-width="0.5">
  <path d="M29.469,15.255c-0.165-0.474-0.286-0.704-0.517-0.968c-0.44-0.518-1.101-0.793-1.903-0.793 c-1.782,0-2.904,1.364-2.904,3.554c0,2.179,1.133,3.564,2.904,3.564c0.869,0,1.605-0.33,2.057-0.924 c0.231-0.319,0.342-0.594,0.44-1.101l0.913,0.221c-0.187,0.648-0.33,0.957-0.594,1.309c-0.616,0.825-1.617,1.276-2.85,1.276 c-1.057,0-1.947-0.33-2.574-0.968c-0.771-0.771-1.188-1.97-1.188-3.345c0-1.419,0.44-2.618,1.254-3.422 c0.639-0.615,1.475-0.935,2.52-0.935c1.034,0,1.87,0.297,2.465,0.891c0.385,0.374,0.594,0.704,0.857,1.387L29.469,15.255z"></path>
  <path d="M35.694,20.459c-0.429,0.385-0.638,0.527-1.012,0.671c-0.374,0.143-0.771,0.22-1.145,0.22 c-1.21,0-1.947-0.627-1.947-1.672c0-0.881,0.55-1.519,1.573-1.805c0.649-0.187,1.177-0.253,2.53-0.286v-0.638 c0-0.748-0.473-1.134-1.386-1.134c-0.605,0-1.057,0.154-1.364,0.474c-0.144,0.154-0.231,0.308-0.341,0.638l-0.858-0.187 c0.198-0.506,0.341-0.737,0.616-0.979c0.451-0.418,1.111-0.627,1.936-0.627c1.452,0,2.201,0.616,2.201,1.805v3.091 c0,0.495,0.021,0.771,0.088,1.21h-0.892V20.459z M35.694,18.236c-1.309,0.033-1.937,0.11-2.432,0.319 c-0.561,0.23-0.836,0.604-0.836,1.133c0,0.605,0.451,0.99,1.166,0.99c0.639,0,1.332-0.309,1.761-0.781 c0.253-0.275,0.341-0.506,0.341-0.946V18.236z"></path>
  <path d="M41.668,16.157c-0.418-0.133-0.616-0.165-0.892-0.165c-0.561,0-1.023,0.23-1.354,0.671 c-0.264,0.341-0.362,0.605-0.406,1.1v2.245c0,0.495,0.021,0.803,0.077,1.231h-0.99c0.055-0.506,0.076-0.792,0.076-1.243v-3.443 c0-0.55-0.021-0.847-0.076-1.243h0.913v0.627c0,0.088,0,0.253-0.012,0.33c0.209-0.341,0.374-0.517,0.605-0.671 c0.418-0.274,0.792-0.385,1.32-0.385c0.33,0,0.517,0.021,0.979,0.099L41.668,16.157z"></path>
 </g>
</svg>
