<?xml version="1.0" encoding="UTF-8" standalone="no"?>
<svg xmlns="http://www.w3.org/2000/svg" version="1.1" x="0" y="0" width="61px" height="60px" viewBox="0 0 61 60">
 <polyline class="pointer" points="0,0 61,0 61,30, 0,30" fill="#fff"></polyline>
 <g transform="translate(-1,-2)" fill="#000" stroke="#000" stroke-linejoin="round" stroke-linecap="round" stroke-width="0.1">
  <path d="M17.408,12.57c-0.099,0.144-0.099,0.144-0.242,0.451c-0.286,0.594-0.385,0.781-0.506,0.979 c0.143-0.033,0.143-0.033,3.323-0.088c0.385,0,0.418-0.012,0.572-0.077l0.473,0.462c-0.099,0.132-0.099,0.143-0.22,0.539 c-0.462,1.551-1.266,3.047-2.201,4.137c-1.012,1.155-2.222,2.024-3.829,2.75c-0.176-0.319-0.264-0.429-0.55-0.649 c1.661-0.682,2.827-1.518,3.883-2.783c0.847-1.022,1.507-2.311,1.893-3.686l-3.708,0.066c-0.671,1.078-1.551,2.046-2.629,2.86 c-0.187-0.275-0.297-0.374-0.616-0.572c1.166-0.759,2.002-1.672,2.761-3.015c0.418-0.726,0.638-1.221,0.693-1.605L17.408,12.57z"></path>
  <path d="M22.753,15.53c0.396,0.055,0.627,0.065,1.287,0.065h5.644c0.407,0,0.528-0.011,0.715-0.077l0.407,0.474 c-0.099,0.153-0.121,0.209-0.308,0.692c-0.935,2.563-2.453,3.972-5.303,4.929c-0.132-0.318-0.209-0.439-0.473-0.759 c1.475-0.418,2.442-0.913,3.268-1.672c0.781-0.716,1.276-1.529,1.782-2.883H24.03c-0.583,0-0.902,0.011-1.276,0.055V15.53z M23.7,12.978c0.319,0.066,0.539,0.077,1.155,0.077h3.674c0.616,0,0.836-0.011,1.155-0.077v0.847 c-0.297-0.044-0.561-0.055-1.144-0.055h-3.697c-0.583,0-0.847,0.011-1.144,0.055V12.978z"></path>
  <path d="M39.111,14.287c0.682,0,0.726,0,0.924-0.066l0.451,0.429c-0.099,0.177-0.099,0.177-0.242,1.111 c-0.264,1.661-0.935,3.015-1.991,4.016c-0.836,0.781-1.903,1.387-3.223,1.826c-0.154-0.33-0.22-0.439-0.506-0.748 c1.045-0.275,1.694-0.572,2.432-1.067c1.54-1.066,2.343-2.574,2.552-4.808H33.5v1.65c0,0.353,0.011,0.605,0.033,0.814h-0.902 c0.022-0.188,0.044-0.539,0.044-0.825v-1.485c0-0.341-0.011-0.627-0.044-0.892c0.341,0.033,0.594,0.045,1.012,0.045h2.332v-1.111 c0-0.319-0.011-0.44-0.055-0.704h0.924c-0.033,0.209-0.055,0.429-0.055,0.692v1.123H39.111z"></path>
  <path d="M43.28,21.646c0.044-0.297,0.066-0.561,0.066-1.155v-6.832c0-0.583-0.022-0.847-0.066-1.122h0.946 c-0.044,0.286-0.055,0.518-0.055,1.145v2.058c1.694,0.604,2.971,1.21,4.896,2.321l-0.473,0.813 c-1.034-0.726-2.552-1.54-4.104-2.178c-0.165-0.066-0.242-0.11-0.341-0.188l-0.022,0.011c0.033,0.221,0.044,0.374,0.044,0.649 v3.312c0,0.616,0.011,0.858,0.055,1.166H43.28z M47.373,13.285c0.539,0.66,0.638,0.804,1.111,1.65L47.9,15.211 c-0.341-0.683-0.605-1.078-1.089-1.673L47.373,13.285z M48.484,12.79c0.528,0.66,0.627,0.804,1.111,1.65l-0.594,0.275 c-0.341-0.671-0.594-1.078-1.079-1.672L48.484,12.79z"></path>
 </g>
 <polyline class="pointer" points="0,30 26,30 30,34 34,30 61,30 61,60, 0,60" fill="#fff" fill-opacity="0.8"></polyline>
 <g transform="translate(-1,28)" fill="#000" stroke="#000" stroke-linejoin="round" stroke-linecap="round" stroke-width="0.5">
  <path d="M17.408,12.57c-0.099,0.144-0.099,0.144-0.242,0.451c-0.286,0.594-0.385,0.781-0.506,0.979 c0.143-0.033,0.143-0.033,3.323-0.088c0.385,0,0.418-0.012,0.572-0.077l0.473,0.462c-0.099,0.132-0.099,0.143-0.22,0.539 c-0.462,1.551-1.266,3.047-2.201,4.137c-1.012,1.155-2.222,2.024-3.829,2.75c-0.176-0.319-0.264-0.429-0.55-0.649 c1.661-0.682,2.827-1.518,3.883-2.783c0.847-1.022,1.507-2.311,1.893-3.686l-3.708,0.066c-0.671,1.078-1.551,2.046-2.629,2.86 c-0.187-0.275-0.297-0.374-0.616-0.572c1.166-0.759,2.002-1.672,2.761-3.015c0.418-0.726,0.638-1.221,0.693-1.605L17.408,12.57z"></path>
  <path d="M22.753,15.53c0.396,0.055,0.627,0.065,1.287,0.065h5.644c0.407,0,0.528-0.011,0.715-0.077l0.407,0.474 c-0.099,0.153-0.121,0.209-0.308,0.692c-0.935,2.563-2.453,3.972-5.303,4.929c-0.132-0.318-0.209-0.439-0.473-0.759 c1.475-0.418,2.442-0.913,3.268-1.672c0.781-0.716,1.276-1.529,1.782-2.883H24.03c-0.583,0-0.902,0.011-1.276,0.055V15.53z M23.7,12.978c0.319,0.066,0.539,0.077,1.155,0.077h3.674c0.616,0,0.836-0.011,1.155-0.077v0.847 c-0.297-0.044-0.561-0.055-1.144-0.055h-3.697c-0.583,0-0.847,0.011-1.144,0.055V12.978z"></path>
  <path d="M39.111,14.287c0.682,0,0.726,0,0.924-0.066l0.451,0.429c-0.099,0.177-0.099,0.177-0.242,1.111 c-0.264,1.661-0.935,3.015-1.991,4.016c-0.836,0.781-1.903,1.387-3.223,1.826c-0.154-0.33-0.22-0.439-0.506-0.748 c1.045-0.275,1.694-0.572,2.432-1.067c1.54-1.066,2.343-2.574,2.552-4.808H33.5v1.65c0,0.353,0.011,0.605,0.033,0.814h-0.902 c0.022-0.188,0.044-0.539,0.044-0.825v-1.485c0-0.341-0.011-0.627-0.044-0.892c0.341,0.033,0.594,0.045,1.012,0.045h2.332v-1.111 c0-0.319-0.011-0.44-0.055-0.704h0.924c-0.033,0.209-0.055,0.429-0.055,0.692v1.123H39.111z"></path>
  <path d="M43.28,21.646c0.044-0.297,0.066-0.561,0.066-1.155v-6.832c0-0.583-0.022-0.847-0.066-1.122h0.946 c-0.044,0.286-0.055,0.518-0.055,1.145v2.058c1.694,0.604,2.971,1.21,4.896,2.321l-0.473,0.813 c-1.034-0.726-2.552-1.54-4.104-2.178c-0.165-0.066-0.242-0.11-0.341-0.188l-0.022,0.011c0.033,0.221,0.044,0.374,0.044,0.649 v3.312c0,0.616,0.011,0.858,0.055,1.166H43.28z M47.373,13.285c0.539,0.66,0.638,0.804,1.111,1.65L47.9,15.211 c-0.341-0.683-0.605-1.078-1.089-1.673L47.373,13.285z M48.484,12.79c0.528,0.66,0.627,0.804,1.111,1.65l-0.594,0.275 c-0.341-0.671-0.594-1.078-1.079-1.672L48.484,12.79z"></path>
 </g>
</svg>
