<?xml version="1.0" encoding="UTF-8" standalone="no"?>
<svg xmlns="http://www.w3.org/2000/svg" version="1.1" x="0" y="0" width="61px" height="60px" viewBox="0 0 61 60">
<polyline class="pointer" points="0,0 61,0 61,30, 0,30" fill="#fff"></polyline>
<g style="fill:#000000;stroke:#000000;stroke-width:0.1;stroke-linecap:round;stroke-linejoin:round" transform="translate(-1)">
    <path d="m 12.23047,10.17969 q -0.082,0.19921 -0.19336,0.55664 a 18.083,18.083 0 0 1 -0.85547,2.19726 v 6.6211 a 12.0426,12.0426 0 0 0 0.06445,1.40625 h -0.873 a 12.14892,12.14892 0 0 0 0.07031,-1.43555 v -4.002 q 0,-0.72657 0.041,-1.44727 A 10.463,10.463 0 0 1 9.40627,15.79878 2.55672,2.55672 0 0 0 8.91994,15.14253 9.67739,9.67739 0 0 0 9.98635,13.66011 13.13944,13.13944 0 0 0 11.041,11.334 7.58454,7.58454 0 0 0 11.39842,9.92775 Z m 1.99219,4.17773 h -0.50391 a 18.0996,18.0996 0 0 1 -0.43359,3.69141 7.93071,7.93071 0 0 1 -0.52735,1.48828 8.44161,8.44161 0 0 1 -0.75586,1.24805 3.54929,3.54929 0 0 0 -0.60937,-0.53321 5.57064,5.57064 0 0 0 0.61523,-0.9082 7.69632,7.69632 0 0 0 0.67969,-2.14453 27.7977,27.7977 0 0 0 0.29883,-4.65234 q 0,-1.166 -0.05274,-1.76954 a 11.41527,11.41527 0 0 0 1.25977,0.0586 h 4.47656 a 7.77119,7.77119 0 0 0 1.207,-0.07031 v 0.83789 a 8.85732,8.85732 0 0 0 -1.17187,-0.0586 h -4.95114 v 0.77344 q 0,0.69141 -0.01758,1.36523 h 4.084 A 5.3207,5.3207 0 0 0 18.81057,13.625 l 0.39843,0.45117 q -0.58593,1.4297 -0.94335,2.127 a 10.225,10.225 0 0 1 -1.23633,1.8457 8.56726,8.56726 0 0 0 3.13476,1.99805 2.77826,2.77826 0 0 0 -0.22851,0.32812 3.37629,3.37629 0 0 0 -0.22852,0.41016 10.11867,10.11867 0 0 1 -3.16992,-2.19727 10.45419,10.45419 0 0 1 -3.19922,2.26172 A 3.26158,3.26158 0 0 0 12.834,20.17582 9.24367,9.24367 0 0 0 16.04492,18.043 8.83131,8.83131 0 0 1 15.02539,16.5137 8.54268,8.54268 0 0 1 14.32227,14.7207 Q 14.2754,14.5625 14.22266,14.35742 Z m 0.69726,0 a 8.27432,8.27432 0 0 0 0.68555,1.78125 7.94183,7.94183 0 0 0 0.91992,1.36524 10.2,10.2 0 0 0 1.73438,-3.14649 z" />
    <path d="m 23.15332,12.33594 a 5.95523,5.95523 0 0 0 1.93945,1.96289 2.62471,2.62471 0 0 0 -0.41015,0.65625 8.36825,8.36825 0 0 1 -0.873,-0.81445 7.37337,7.37337 0 0 1 -0.83789,-1.17774 q 0.07617,0.791 0.07617,1.459 v 1.10741 a 8.67822,8.67822 0 0 0 0.06445,1.25976 h -0.832 a 7.90957,7.90957 0 0 0 0.07032,-1.2539 v -1.10157 q 0.01171,-0.59765 0.06445,-1.43554 a 12.82005,12.82005 0 0 1 -0.63281,1.14843 11.28944,11.28944 0 0 1 -1.51758,1.82813 1.94394,1.94394 0 0 0 -0.48633,-0.63867 8.77518,8.77518 0 0 0 1.41211,-1.45313 8.68634,8.68634 0 0 0 0.95508,-1.54687 h -1.07235 a 6.49987,6.49987 0 0 0 -0.92578,0.04687 v -0.76172 a 5.95709,5.95709 0 0 0 0.9375,0.05274 h 1.26563 v -0.59766 a 5.05419,5.05419 0 0 0 -0.07032,-0.99609 h 0.83789 A 4.76521,4.76521 0 0 0 23.05371,11 v 0.67383 H 24.044 a 5.41668,5.41668 0 0 0 0.86718,-0.05274 v 0.76172 a 7.01771,7.01771 0 0 0 -0.86133,-0.04687 z m -2.44922,8.02734 -0.65625,-0.46875 a 8.18722,8.18722 0 0 0 0.82617,-1.19531 7.60374,7.60374 0 0 0 0.5625,-1.48828 l 0.69727,0.28711 a 10.63211,10.63211 0 0 1 -0.60938,1.57617 10.23438,10.23438 0 0 1 -0.82031,1.28906 z m 7.70508,-1.74609 a 6.36531,6.36531 0 0 1 -0.23438,1.30664 0.94136,0.94136 0 0 1 -0.709,0.57422 11.49643,11.49643 0 0 1 -2.09766,0.11718 9.49256,9.49256 0 0 1 -1.4707,-0.082 1.17436,1.17436 0 0 1 -0.66211,-0.28711 0.46614,0.46614 0 0 1 -0.1289,-0.21679 A 1.8038,1.8038 0 0 1 23.05369,19.543 V 18.2012 A 7.23242,7.23242 0 0 0 22.98338,17.09378 H 23.874 a 6.73474,6.73474 0 0 0 -0.07031,1.10742 v 1.19531 q 0,0.293 0.14063,0.375 a 1.0372,1.0372 0 0 0 0.43359,0.11719 q 0.293,0.0293 1.04883,0.0293 a 8.395,8.395 0 0 0 1.6875,-0.09961 0.54177,0.54177 0 0 0 0.32226,-0.18164 2.79413,2.79413 0 0 0 0.2168,-1.30078 2.44853,2.44853 0 0 0 0.75588,0.28122 z m -1.623,-0.20508 -0.5625,0.51562 a 9.63254,9.63254 0 0 0 -1.72851,-1.793 l 0.5332,-0.4043 a 12.66053,12.66053 0 0 1 1.75776,1.68168 z m 3.20508,-7.93945 a 9.3817,9.3817 0 0 0 -0.04687,1.166 v 3.8086 a 9.49539,9.49539 0 0 0 0.05859,1.20117 q -0.41016,-0.03516 -1.25977,-0.04688 h -2.1914 q -0.72071,0 -1.24805,0.03516 0.05274,-0.48046 0.05859,-1.18945 v -3.8086 q -0.0058,-0.80273 -0.04687,-1.166 0.48046,0.04688 1.22461,0.04687 h 2.2207 q 0.72652,0 1.23042,-0.04687 z m -3.91992,0.68554 v 1.16016 h 3.15234 V 11.1582 Z m 0,1.78711 v 1.1836 h 3.15234 v -1.1836 z m 0,1.81055 v 1.207 h 3.15234 v -1.207 z m 4.68164,5.00391 -0.69727,0.49218 A 12.24136,12.24136 0 0 0 28.292,17.52148 l 0.65625,-0.35742 a 16.62664,16.62664 0 0 1 1.80468,2.59571 z" />
    <path d="m 30.67188,15.57031 v -0.79687 a 4.95732,4.95732 0 0 0 0.84375,0.05859 h 0.55664 A 6.02378,6.02378 0 0 0 32.97461,14.77344 10.56455,10.56455 0 0 0 32.916,16.0332 v 2.34961 a 2.00964,2.00964 0 0 0 0.48046,0.68555 2.61393,2.61393 0 0 0 1.08985,0.58594 10.79981,10.79981 0 0 0 2.373,0.18164 40.58726,40.58726 0 0 0 4.793,-0.252 3.58943,3.58943 0 0 0 -0.27539,0.88477 q -2.05077,0.082 -3.873,0.082 a 16.25113,16.25113 0 0 1 -3.01172,-0.16992 3.258,3.258 0 0 1 -1.459,-0.75 A 4.52653,4.52653 0 0 1 32.5,19.0097 q -0.43359,0.498 -0.82617,0.86718 -0.24024,0.22266 -0.44531,0.4043 -0.12306,0.1172 -0.32813,0.29883 l -0.41016,-0.78516 a 2.6496,2.6496 0 0 0 0.47461,-0.28711 8.33761,8.33761 0 0 0 1.23047,-1.11328 v -2.88274 h -0.72656 a 4.3151,4.3151 0 0 0 -0.79687,0.05859 z m 0.08789,-4.8457 0.55664,-0.49219 a 15.12186,15.12186 0 0 1 1.92187,2.1211 l -0.60937,0.55078 a 11.401,11.401 0 0 0 -1.86914,-2.17969 z m 6.39843,1.93359 q -0.23437,-0.18163 -0.55664,-0.39257 -0.61523,-0.39258 -1.043,-0.61524 l 0.54493,-0.39844 a 18.4473,18.4473 0 0 1 1.59961,1.084 l 0.13476,-0.082 a 10.83674,10.83674 0 0 0 1.7168,-1.18946 H 35.125 a 9.90291,9.90291 0 0 0 -1.207,0.0586 v -0.75 a 8.08419,8.08419 0 0 0 1.26562,0.07031 h 4.1836 a 8.23186,8.23186 0 0 0 1.21875,-0.05273 l 0.30469,0.43359 q -0.11133,0.07617 -0.30469,0.23437 -0.53907,0.44532 -1.23047,0.90821 -0.55078,0.36914 -1.1543,0.6914 h 1.5586 a 9.70435,9.70435 0 0 0 1.3125,-0.05859 14.7,14.7 0 0 0 -0.04688,1.4707 v 3.95508 a 1.05478,1.05478 0 0 1 -0.1875,0.72656 0.54508,0.54508 0 0 1 -0.27539,0.15235 2.5704,2.5704 0 0 1 -0.57422,0.04687 q -0.41016,0 -0.83789,-0.01758 a 2.72687,2.72687 0 0 0 -0.17578,-0.70312 6.37685,6.37685 0 0 0 0.99609,0.08789 q 0.23438,0 0.28711,-0.06445 a 0.48125,0.48125 0 0 0 0.05274,-0.26953 v -1.166 h -2.502 v 0.75 a 8.54263,8.54263 0 0 0 0.07032,1.30078 h -0.82032 a 8.47238,8.47238 0 0 0 0.07032,-1.30078 v -0.75 h -2.25 v 0.92578 a 7.501,7.501 0 0 0 0.07031,1.25977 H 34.0996 a 7.96353,7.96353 0 0 0 0.07031,-1.25977 v -3.791 a 11.27866,11.27866 0 0 0 -0.05273,-1.35352 11.02289,11.02289 0 0 0 1.30078,0.05859 z m -0.02929,0.59766 h -2.25 v 1.18359 h 2.25 z m -2.25,1.76367 v 1.21289 h 2.25 v -1.21289 z m 2.92968,-1.76367 v 1.18359 h 2.502 v -1.18359 z m 2.502,2.97656 v -1.21289 h -2.502 v 1.21289 z" />
    <path d="M 44.33789,13.86523 H 43.5 a 3.10038,3.10038 0 0 0 0.05859,-0.6914 v -0.47461 a 4.41668,4.41668 0 0 1 0.0586,-0.76758 12.20693,12.20693 0 0 1 -1.76367,1.14258 2.98737,2.98737 0 0 0 -0.43946,-0.59766 9.0314,9.0314 0 0 0 2.332,-1.5 4.18009,4.18009 0 0 0 0.92579,-1.01367 l 0.709,0.36328 q -0.05274,0.05274 -0.14063,0.15235 -0.10546,0.0996 -0.17578,0.17578 a 9.33464,9.33464 0 0 1 -0.78515,0.73242 v 1.72266 a 3.60221,3.60221 0 0 0 0.0586,0.75585 z m -2.73633,6.41016 A 9.02587,9.02587 0 0 0 45.041,19.2207 l 0.58593,0.43946 a 9.83841,9.83841 0 0 1 -1.6582,0.78515 15.7032,15.7032 0 0 1 -1.92773,0.50977 2.64126,2.64126 0 0 0 -0.43944,-0.67969 z m 9.19336,-6.04687 q -0.03516,0.43359 -0.03515,1.3125 v 2.29687 a 10.14522,10.14522 0 0 0 0.04687,1.24219 Q 50.36134,19.03321 49.4707,19.0332 h -5.10937 q -0.89649,0 -1.33594,0.04688 a 10.20944,10.20944 0 0 0 0.04688,-1.21875 v -2.34961 q 0,-0.83788 -0.03516,-1.27734 0.34571,0.03514 1.24219,0.03515 h 5.27343 q 0.80274,0 1.24219,-0.04101 z m -6.99609,0.63867 v 0.80273 h 6.23437 v -0.80273 z m 0,1.377 v 0.80859 h 6.23437 v -0.80859 z m 0,1.38281 v 0.82032 H 50.0332 V 17.627 Z m 3.46875,-6.24023 a 17.58791,17.58791 0 0 0 1.75781,-0.334 8.127,8.127 0 0 0 2.0918,-0.77929 l 0.51562,0.61523 A 17.60552,17.60552 0 0 1 47.26758,12.002 v 0.56836 a 0.28689,0.28689 0 0 0 0.24023,0.29883 8.2634,8.2634 0 0 0 1.541,0.082 10.19591,10.19591 0 0 0 1.98633,-0.09961 0.47464,0.47464 0 0 0 0.31054,-0.29883 3.37186,3.37186 0 0 0 0.09961,-0.82617 2.72171,2.72171 0 0 0 0.36328,0.14063 2.78059,2.78059 0 0 0 0.36329,0.09375 2.38858,2.38858 0 0 1 -0.334,1.19531 0.82458,0.82458 0 0 1 -0.42187,0.26953 3.28466,3.28466 0 0 1 -0.73829,0.11133 q -0.50976,0.03516 -1.81054,0.03516 A 6.59728,6.59728 0 0 1 46.916,13.4082 0.60789,0.60789 0 0 1 46.58787,13.10938 0.87726,0.87726 0 0 1 46.53514,12.76367 v -1.75781 a 4.51549,4.51549 0 0 0 -0.07032,-0.88477 h 0.873 a 4.34912,4.34912 0 0 0 -0.07031,0.86719 z m 5.04492,8.85937 a 3.4587,3.4587 0 0 0 -0.45117,0.709 14.64943,14.64943 0 0 1 -1.8457,-0.457 A 8.42606,8.42606 0 0 1 48.81445,20 q -0.14648,-0.0703 -0.60351,-0.32812 l 0.55078,-0.45118 a 9.33478,9.33478 0 0 0 3.55078,1.02539 z" />
  </g>
  <polyline fill-opacity="0.8" fill="#fff" points="0,30 26,30 30,34 34,30 61,30 61,60, 0,60" class="pointer" />
  <g stroke-width="0.2" stroke-linecap="round" stroke-linejoin="round" stroke="#000" fill="#000" transform="translate(-1)">
    <path d="m 14.14551,44.44043 q -0.07617,1.10155 -0.18164,1.9043 A 9.10869,9.10869 0 0 1 12.294,50.74512 4.93738,4.93738 0 0 0 11.67876,49.9834 q -0.10547,-0.09962 -0.27539,-0.2461 0.01758,0.65625 0.06445,1.11915 H 10.085 A 12.509,12.509 0 0 0 10.15531,49.4502 V 45.917 q 0.0059,-0.55663 0.0293,-1.33594 a 7.6787,7.6787 0 0 1 -0.85547,1.26563 5.33968,5.33968 0 0 0 -0.54492,-1.42383 9.07005,9.07005 0 0 0 0.9375,-1.28906 10.95716,10.95716 0 0 0 0.98437,-2.168 7.26064,7.26064 0 0 0 0.334,-1.35937 l 1.38281,0.43359 q -0.082,0.20508 -0.20508,0.59766 a 16.96479,16.96479 0 0 1 -0.81445,2.0332 v 6.9668 a 4.78745,4.78745 0 0 0 0.52734,-0.82032 7.0224,7.0224 0 0 0 0.5625,-1.59375 17.04393,17.04393 0 0 0 0.31055,-2.209 q 0.09375,-1.11915 0.09375,-3.01172 0,-1.04883 -0.05273,-1.7168 0.52734,0.05274 1.30078,0.05274 h 4.41211 a 10.42832,10.42832 0 0 0 1.418,-0.07032 v 1.3418 a 12.90934,12.90934 0 0 0 -1.3711,-0.05859 h -4.41219 v 0.709 l -0.01172,0.90235 h 3.67383 a 5.74338,5.74338 0 0 0 0.97266,-0.05274 l 0.62109,0.67969 q -0.123,0.29883 -0.25195,0.65039 a 12.358,12.358 0 0 1 -1.67578,3.36914 8.272,8.272 0 0 0 2.68949,1.66408 6.17217,6.17217 0 0 0 -0.375,0.63282 q -0.1875,0.36327 -0.30469,0.65039 a 9.86422,9.86422 0 0 1 -2.83593,-1.99219 10.65571,10.65571 0 0 1 -1.25391,1.07812 12.48071,12.48071 0 0 1 -1.61133,0.97852 5.56448,5.56448 0 0 0 -0.74414,-1.18359 8.7575,8.7575 0 0 0 2.75391,-1.81641 8.91132,8.91132 0 0 1 -1.35352,-2.35547 q -0.16409,-0.4453 -0.33988,-1.02539 z m 1.14258,-0.123 a 8.091,8.091 0 0 0 0.84375,1.84571 6.54867,6.54867 0 0 0 0.5332,0.74414 6.8454,6.8454 0 0 0 0.67969,-1.10743 11.41959,11.41959 0 0 0 0.57422,-1.48242 z" />
    <path d="m 23.50391,42.31934 a 5.11725,5.11725 0 0 0 0.76757,0.97265 4.396,4.396 0 0 0 0.9668,0.67969 4.15386,4.15386 0 0 0 -0.60937,1.14844 6.55438,6.55438 0 0 1 -1.40039,-1.53512 q 0.04688,0.73242 0.04687,1.29492 v 0.65625 a 7.0403,7.0403 0 0 0 0.05859,1.05469 h -1.35351 a 5.678,5.678 0 0 0 0.07031,-1.043 v -0.63867 l 0.01758,-0.46289 q 0.01172,-0.39258 0.0293,-0.80859 a 8.17226,8.17226 0 0 1 -1.7461,2.33789 5.26169,5.26169 0 0 0 -0.72656,-1.11914 5.51554,5.51554 0 0 0 0.832,-0.72071 6.9137,6.9137 0 0 0 1.23633,-1.8164 H 21.0781 a 9.11662,9.11662 0 0 0 -1.084,0.04687 v -1.27149 a 8.52252,8.52252 0 0 0 1.10742,0.05273 h 0.94922 v -0.46875 a 4.86019,4.86019 0 0 0 -0.07031,-0.91992 h 1.35937 a 5.42939,5.42939 0 0 0 -0.05859,0.95508 v 0.43359 h 0.71484 a 7.5511,7.5511 0 0 0 0.97852,-0.05273 v 1.27148 A 8.62283,8.62283 0 0 0 24.01949,42.31934 Z M 20.91406,50.376 19.80664,49.59084 a 7.45205,7.45205 0 0 0 0.7207,-1.11914 8.07747,8.07747 0 0 0 0.54493,-1.59961 L 22.209,47.376 A 12.16708,12.16708 0 0 1 21.62893,49.09865 13.53372,13.53372 0 0 1 20.91406,50.376 Z M 28.502,48.39551 a 6.793,6.793 0 0 1 -0.21679,1.37109 1.01581,1.01581 0 0 1 -0.45118,0.58008 2.02275,2.02275 0 0 1 -0.76757,0.20508 q -0.54492,0.05859 -1.752,0.05859 A 10.336,10.336 0 0 1 23.83789,50.54 1.64083,1.64083 0 0 1 23.05273,50.24117 1.05933,1.05933 0 0 1 22.80664,49.42086 v -1.40621 a 7.81709,7.81709 0 0 0 -0.07031,-1.13672 h 1.42383 a 7.59224,7.59224 0 0 0 -0.0586,1.13672 v 0.96094 a 0.365,0.365 0 0 0 0.09375,0.293 2.15548,2.15548 0 0 0 1.01367,0.14063 8.69873,8.69873 0 0 0 1.54102,-0.07622 0.48786,0.48786 0 0 0 0.28711,-0.15821 2.54553,2.54553 0 0 0 0.18164,-1.13671 4.10174,4.10174 0 0 0 1.28325,0.35743 z m -3.19336,-2.05664 q 0.02345,-0.334 0.03516,-1.01367 v -4.10157 a 8.66817,8.66817 0 0 0 -0.05273,-1.11328 q 0.45117,0.04688 1.16015,0.04688 h 2.61914 q 0.69728,0 1.1543,-0.04688 a 9.83451,9.83451 0 0 0 -0.04688,1.11328 v 4.11328 a 10.32469,10.32469 0 0 0 0.05274,1.166 q -0.26367,-0.01758 -0.7207,-0.0293 L 29.1231,46.46189 h -2.74224 q -0.416,0 -0.791,0.01172 a 13.03661,13.03661 0 0 1 1.3418,1.50586 l -1.00781,0.76758 a 11.65461,11.65461 0 0 0 -0.70313,-0.99023 q -0.29883,-0.36915 -0.77929,-0.85547 z m 1.25977,-5.0918 v 0.69141 h 2.36719 v -0.69141 z m 0,1.70508 v 0.69726 h 2.36719 v -0.69726 z m 0,1.71094 v 0.7207 h 2.36719 v -0.7207 z m 4.33594,4.86328 -1.1836,0.73242 A 13.70574,13.70574 0 0 0 28.03911,47.3584 l 1.13086,-0.55664 a 18.60368,18.60368 0 0 1 1.73433,2.72461 z" />
    <path d="m 30.57129,45.61816 v -1.34765 a 6.04479,6.04479 0 0 0 0.91406,0.05859 h 0.84375 a 6.49628,6.49628 0 0 0 0.9082,-0.05273 12.01168,12.01168 0 0 0 -0.05273,1.30664 v 2.5664 a 2.16851,2.16851 0 0 0 0.58594,0.668 2.0643,2.0643 0 0 0 0.60351,0.31055 9.764,9.764 0 0 0 2.37891,0.2168 q 1.50586,0 2.34668,-0.05274 0.84082,-0.05274 2.68066,-0.25781 -0.10546,0.30468 -0.19922,0.67383 -0.0996,0.43359 -0.14648,0.76172 -2.09766,0.08789 -4.81055,0.08789 A 8.668,8.668 0 0 1 33.92285,50.25882 2.8763,2.8763 0 0 1 32.80957,49.54398 Q 32.70996,49.4385 32.54004,49.23929 l -0.1875,0.1875 a 15.49589,15.49589 0 0 1 -1.33594,1.16015 l -0.65039,-1.31836 a 5.2308,5.2308 0 0 0 0.76758,-0.48046 8.63667,8.63667 0 0 0 0.82031,-0.67383 v -2.55472 h -0.61523 a 4.61223,4.61223 0 0 0 -0.76758,0.05859 z m -0.03516,-4.8457 0.95508,-0.90234 q 0.55664,0.48046 1.11914,1.05468 a 12.9436,12.9436 0 0 1 0.96094,1.11329 L 32.5752,43.0166 a 12.2978,12.2978 0 0 0 -2.03907,-2.24414 z m 5.77735,1.541 -0.09961,-0.06446 a 9.13125,9.13125 0 0 0 -0.89649,-0.55664 l 0.93164,-0.54492 h -1.15429 a 10.28244,10.28244 0 0 0 -1.24219,0.05859 V 39.9873 a 10.768,10.768 0 0 0 1.43555,0.07032 H 39.167 a 5.752,5.752 0 0 0 1.35352,-0.082 l 0.627,0.73828 a 5.65546,5.65546 0 0 0 -0.60351,0.457 q -0.41016,0.33984 -1.09571,0.83789 -0.22851,0.15821 -0.46289,0.30469 h 0.9668 a 10.16852,10.16852 0 0 0 1.22461,-0.05274 13.63551,13.63551 0 0 0 -0.04688,1.377 v 3.70312 a 3.82407,3.82407 0 0 1 -0.05859,0.79688 0.64257,0.64257 0 0 1 -0.45117,0.46289 3.14028,3.14028 0 0 1 -0.9668,0.10546 q -0.16405,0 -0.53906,-0.0059 a 3.12363,3.12363 0 0 0 -0.28125,-1.14258 5.47306,5.47306 0 0 0 0.80273,0.07617 0.38956,0.38956 0 0 0 0.21094,-0.041 q 0.04688,-0.02343 0.05273,-0.123 v -0.63282 h -1.793 v 0.50391 a 10.0458,10.0458 0 0 0 0.06445,1.31836 h -1.31838 a 8.99616,8.99616 0 0 0 0.07031,-1.31836 V 46.83701 H 35.294 v 0.61524 a 7.74777,7.74777 0 0 0 0.07031,1.29492 h -1.35357 a 9.25089,9.25089 0 0 0 0.06446,-1.29492 v -3.80284 q 0,-0.89648 -0.05274,-1.38867 a 13.17578,13.17578 0 0 0 1.3418,0.05274 z m 0.60937,1.01367 H 35.294 v 0.7793 h 1.6289 z M 35.294,45.06152 v 0.8086 h 1.6289 v -0.8086 z m 1.043,-3.91406 q 0.41016,0.27538 1.11914,0.79688 l 0.14063,0.10546 0.09961,-0.07031 q 0.75,-0.5332 1.0957,-0.832 z m 1.76954,2.17969 v 0.7793 h 1.793 v -0.7793 z m 1.793,2.543 v -0.8086 h -1.793 v 0.8086 z" />
    <path d="m 44.6123,43.72559 h -1.33593 a 3.20019,3.20019 0 0 0 0.05273,-0.58594 v -0.4043 a 2.78169,2.78169 0 0 1 0.0469,-0.52735 9.73975,9.73975 0 0 1 -1.44141,0.9082 3.08241,3.08241 0 0 0 -0.28711,-0.56836 4.84522,4.84522 0 0 0 -0.36328,-0.48047 7.815,7.815 0 0 0 2.26758,-1.4414 7.07588,7.07588 0 0 0 0.62109,-0.65625 2.30011,2.30011 0 0 0 0.20508,-0.293 l 1.24219,0.49219 q -0.07032,0.0703 -0.16992,0.1875 l -0.09961,0.0996 a 10.31045,10.31045 0 0 1 -0.79688,0.7793 v 1.66406 a 4.23939,4.23939 0 0 0 0.05857,0.82622 z m 0.0879,5.23828 h -0.63868 q -0.89062,0 -1.27734,0.03515 0.041,-0.375 0.04687,-1.19531 v -2.51953 q 0,-0.83789 -0.041,-1.24219 0.29883,0.02345 1.21875,0.0293 h 5.78906 q 0.84375,0 1.21289,-0.03516 -0.041,0.39258 -0.041,1.32422 v 2.36719 A 11.733,11.733 0 0 0 51.0166,48.999 q -0.4453,-0.03515 -1.27148,-0.03515 h -0.5625 a 9.24824,9.24824 0 0 0 3.28125,0.791 7.03691,7.03691 0 0 0 -0.74414,1.1543 14.35319,14.35319 0 0 1 -2.02149,-0.49219 10.25369,10.25369 0 0 1 -1.81054,-0.85547 l 0.67968,-0.59765 h -3.38672 l 0.77344,0.56836 a 10.56481,10.56481 0 0 1 -1.78125,0.86718 15.6404,15.6404 0 0 1 -2.02148,0.51563 4.9231,4.9231 0 0 0 -0.72657,-1.10742 11.04953,11.04953 0 0 0 2.51368,-0.52149 8.08473,8.08473 0 0 0 0.76172,-0.32223 z m -0.6211,-3.9961 V 45.419 h 5.63672 v -0.45118 z m 0,1.28321 v 0.46875 h 5.63672 V 46.251 Z m 0,1.30078 v 0.47461 h 5.63672 v -0.47461 z m 3.52149,-6.70313 a 11.57537,11.57537 0 0 0 3.39843,-0.96679 l 0.91993,0.96093 a 20.44482,20.44482 0 0 1 -4.31836,1.04883 v 0.26953 a 0.24585,0.24585 0 0 0 0.10546,0.22852 1.16173,1.16173 0 0 0 0.49219,0.09375 q 0.33984,0.01758 0.9375,0.01758 a 9.57851,9.57851 0 0 0 1.56446,-0.07032 0.415,0.415 0 0 0 0.3164,-0.22851 3.07477,3.07477 0 0 0 0.08789,-0.791 4.76832,4.76832 0 0 0 1.21289,0.31641 3.20675,3.20675 0 0 1 -0.31054,1.24219 1.16664,1.16664 0 0 1 -0.84375,0.46875 6.55123,6.55123 0 0 1 -0.83789,0.07031 q -1.10157,0.03516 -1.48243,0.03516 A 12.64148,12.64148 0 0 1 47.14941,43.45607 0.969,0.969 0 0 1 46.4873,43.12795 0.86681,0.86681 0 0 1 46.34082,42.57717 V 40.77832 A 5.84886,5.84886 0 0 0 46.28223,39.8291 h 1.377 a 5.31381,5.31381 0 0 0 -0.05859,0.89063 z" />
  </g>
</svg>
