<?xml version="1.0" encoding="UTF-8" standalone="no"?>
<svg xmlns="http://www.w3.org/2000/svg" version="1.1" x="0" y="0" width="61px" height="60px" viewBox="0 0 61 60">
 <polyline class="pointer" points="0,0 61,0 61,30, 0,30" fill="#fff"></polyline>
 <g transform="translate(-1,-2)" fill="#000" stroke="#000" stroke-linejoin="round" stroke-linecap="round" stroke-width="0.1">
  <path d="M17.023,16.509c-0.011,0.33-0.055,0.737-0.121,1.166c-0.187,1.299-0.649,2.2-1.485,2.904 c-0.484,0.419-1.034,0.727-1.937,1.09c-0.154-0.33-0.242-0.451-0.517-0.715c1.441-0.463,2.333-1.167,2.784-2.168 c0.253-0.55,0.418-1.419,0.44-2.277h-2.981c-0.572,0-0.891,0.011-1.265,0.056V15.75c0.385,0.055,0.649,0.065,1.276,0.065h6.436 c0.627,0,0.891-0.011,1.276-0.065v0.814c-0.374-0.045-0.693-0.056-1.265-0.056H17.023z M13.052,13.021 c0.363,0.066,0.583,0.077,1.265,0.077h3.554c0.649,0,0.858-0.011,1.265-0.077v0.836c-0.33-0.044-0.616-0.055-1.254-0.055h-3.576 c-0.638,0-0.924,0.011-1.254,0.055V13.021z M19.917,13.362c0.363,0.506,0.539,0.836,0.88,1.596L20.192,15.2 c-0.264-0.66-0.473-1.067-0.858-1.606L19.917,13.362z M21.017,12.911c0.352,0.484,0.561,0.858,0.88,1.585l-0.594,0.253 c-0.264-0.672-0.484-1.078-0.869-1.617L21.017,12.911z"></path>
  <path d="M23.304,15.519c1.045,0.43,1.837,0.825,2.794,1.431l-0.429,0.748c-0.803-0.594-1.804-1.133-2.805-1.508L23.304,15.519z M23.018,20.547c0.715,0,1.859-0.265,2.959-0.683c1.364-0.517,2.409-1.298,3.3-2.453c0.616-0.803,0.979-1.496,1.32-2.476 c0.275,0.297,0.385,0.386,0.682,0.595c-0.957,2.288-2.299,3.773-4.235,4.741c-0.771,0.374-1.881,0.759-2.784,0.946 c-0.176,0.033-0.374,0.077-0.594,0.121c-0.22,0.044-0.264,0.055-0.429,0.109L23.018,20.547z M24.162,12.89 c1.079,0.439,1.793,0.803,2.729,1.386l-0.451,0.737c-0.759-0.572-1.903-1.177-2.706-1.463L24.162,12.89z M30.092,12.493 c0.473,0.539,0.737,0.913,1.1,1.552l-0.561,0.297c-0.385-0.671-0.616-1.001-1.111-1.562L30.092,12.493z M31.17,11.943 c0.462,0.517,0.737,0.902,1.1,1.54l-0.572,0.309c-0.374-0.672-0.605-1.002-1.1-1.562L31.17,11.943z"></path>
  <path d="M36.505,14.661c0.044-0.562,0.066-1.167,0.066-1.65c0-0.253-0.011-0.374-0.044-0.572l0.891,0.021 c-0.044,0.254-0.044,0.254-0.088,1.42c-0.022,0.341-0.022,0.473-0.055,0.781l2.75-0.012c0.495,0,0.506-0.011,0.726-0.077 l0.407,0.353c-0.066,0.165-0.077,0.264-0.088,0.66c-0.033,1.43-0.165,3.092-0.308,3.851c-0.275,1.507-0.605,1.903-1.595,1.903 c-0.352,0-0.781-0.056-1.364-0.188c0-0.065,0-0.099,0-0.132c0-0.253-0.022-0.407-0.121-0.693 c0.594,0.198,1.056,0.286,1.419,0.286c0.539,0,0.715-0.264,0.924-1.353c0.165-0.869,0.264-2.277,0.275-3.906l-3.081,0.012 c-0.143,1.408-0.396,2.321-0.88,3.245c-0.616,1.133-1.639,2.167-2.882,2.915c-0.198-0.318-0.286-0.407-0.561-0.648 c1.309-0.693,2.255-1.661,2.86-2.894c0.374-0.771,0.539-1.387,0.682-2.618l-2.002,0.011c-0.649,0-0.77,0-1.166,0.055 l-0.011-0.836c0.374,0.066,0.638,0.077,1.188,0.077L36.505,14.661z"></path>
  <path d="M50.244,13.109c-0.143,0.209-0.187,0.309-0.341,0.671c-0.715,1.684-1.056,2.354-1.617,3.213 c0.946,0.781,1.65,1.452,2.53,2.365L50.2,20.04c-0.583-0.748-1.287-1.452-2.398-2.387c-1.155,1.584-2.497,2.739-4.422,3.828 c-0.198-0.33-0.286-0.429-0.572-0.66c1.76-0.857,3.168-2.046,4.379-3.674c-1.001-0.804-2.036-1.485-2.959-1.991l0.55-0.584 c1.078,0.649,1.628,1.013,2.86,1.915c0.517-0.814,0.913-1.606,1.298-2.563c0.275-0.671,0.33-0.848,0.385-1.166L50.244,13.109z"></path>
 </g>
 <polyline class="pointer" points="0,30 26,30 30,34 34,30 61,30 61,60, 0,60" fill="#fff" fill-opacity="0.8"></polyline>
 <g transform="translate(-1,28)" fill="#000" stroke="#000" stroke-linejoin="round" stroke-linecap="round" stroke-width="0.5">
  <path d="M17.023,16.509c-0.011,0.33-0.055,0.737-0.121,1.166c-0.187,1.299-0.649,2.2-1.485,2.904 c-0.484,0.419-1.034,0.727-1.937,1.09c-0.154-0.33-0.242-0.451-0.517-0.715c1.441-0.463,2.333-1.167,2.784-2.168 c0.253-0.55,0.418-1.419,0.44-2.277h-2.981c-0.572,0-0.891,0.011-1.265,0.056V15.75c0.385,0.055,0.649,0.065,1.276,0.065h6.436 c0.627,0,0.891-0.011,1.276-0.065v0.814c-0.374-0.045-0.693-0.056-1.265-0.056H17.023z M13.052,13.021 c0.363,0.066,0.583,0.077,1.265,0.077h3.554c0.649,0,0.858-0.011,1.265-0.077v0.836c-0.33-0.044-0.616-0.055-1.254-0.055h-3.576 c-0.638,0-0.924,0.011-1.254,0.055V13.021z M19.917,13.362c0.363,0.506,0.539,0.836,0.88,1.596L20.192,15.2 c-0.264-0.66-0.473-1.067-0.858-1.606L19.917,13.362z M21.017,12.911c0.352,0.484,0.561,0.858,0.88,1.585l-0.594,0.253 c-0.264-0.672-0.484-1.078-0.869-1.617L21.017,12.911z"></path>
  <path d="M23.304,15.519c1.045,0.43,1.837,0.825,2.794,1.431l-0.429,0.748c-0.803-0.594-1.804-1.133-2.805-1.508L23.304,15.519z M23.018,20.547c0.715,0,1.859-0.265,2.959-0.683c1.364-0.517,2.409-1.298,3.3-2.453c0.616-0.803,0.979-1.496,1.32-2.476 c0.275,0.297,0.385,0.386,0.682,0.595c-0.957,2.288-2.299,3.773-4.235,4.741c-0.771,0.374-1.881,0.759-2.784,0.946 c-0.176,0.033-0.374,0.077-0.594,0.121c-0.22,0.044-0.264,0.055-0.429,0.109L23.018,20.547z M24.162,12.89 c1.079,0.439,1.793,0.803,2.729,1.386l-0.451,0.737c-0.759-0.572-1.903-1.177-2.706-1.463L24.162,12.89z M30.092,12.493 c0.473,0.539,0.737,0.913,1.1,1.552l-0.561,0.297c-0.385-0.671-0.616-1.001-1.111-1.562L30.092,12.493z M31.17,11.943 c0.462,0.517,0.737,0.902,1.1,1.54l-0.572,0.309c-0.374-0.672-0.605-1.002-1.1-1.562L31.17,11.943z"></path>
  <path d="M36.505,14.661c0.044-0.562,0.066-1.167,0.066-1.65c0-0.253-0.011-0.374-0.044-0.572l0.891,0.021 c-0.044,0.254-0.044,0.254-0.088,1.42c-0.022,0.341-0.022,0.473-0.055,0.781l2.75-0.012c0.495,0,0.506-0.011,0.726-0.077 l0.407,0.353c-0.066,0.165-0.077,0.264-0.088,0.66c-0.033,1.43-0.165,3.092-0.308,3.851c-0.275,1.507-0.605,1.903-1.595,1.903 c-0.352,0-0.781-0.056-1.364-0.188c0-0.065,0-0.099,0-0.132c0-0.253-0.022-0.407-0.121-0.693 c0.594,0.198,1.056,0.286,1.419,0.286c0.539,0,0.715-0.264,0.924-1.353c0.165-0.869,0.264-2.277,0.275-3.906l-3.081,0.012 c-0.143,1.408-0.396,2.321-0.88,3.245c-0.616,1.133-1.639,2.167-2.882,2.915c-0.198-0.318-0.286-0.407-0.561-0.648 c1.309-0.693,2.255-1.661,2.86-2.894c0.374-0.771,0.539-1.387,0.682-2.618l-2.002,0.011c-0.649,0-0.77,0-1.166,0.055 l-0.011-0.836c0.374,0.066,0.638,0.077,1.188,0.077L36.505,14.661z"></path>
  <path d="M50.244,13.109c-0.143,0.209-0.187,0.309-0.341,0.671c-0.715,1.684-1.056,2.354-1.617,3.213 c0.946,0.781,1.65,1.452,2.53,2.365L50.2,20.04c-0.583-0.748-1.287-1.452-2.398-2.387c-1.155,1.584-2.497,2.739-4.422,3.828 c-0.198-0.33-0.286-0.429-0.572-0.66c1.76-0.857,3.168-2.046,4.379-3.674c-1.001-0.804-2.036-1.485-2.959-1.991l0.55-0.584 c1.078,0.649,1.628,1.013,2.86,1.915c0.517-0.814,0.913-1.606,1.298-2.563c0.275-0.671,0.33-0.848,0.385-1.166L50.244,13.109z"></path>
 </g>
</svg>
