<?xml version="1.0" encoding="UTF-8" standalone="no"?>
<svg xmlns="http://www.w3.org/2000/svg" version="1.1" x="0" y="0" width="61px" height="60px" viewBox="0 0 61 60">
 <polyline class="pointer" points="0,0 61,0 61,30, 0,30" fill="#fff"></polyline>
 <g transform="translate(-1,-2)" fill="#000" stroke="#000" stroke-linejoin="round" stroke-linecap="round" stroke-width="0.1">
  <path d="M21.598,17.863c-0.52,0-0.75,0.01-1.029,0.061v-0.81c0.3,0.05,0.55,0.06,1.089,0.06h0.29c0.47,0,0.75-0.01,1.059-0.04 c-0.06,0.42-0.07,0.67-0.07,1.13v0.919c0,0.47,0.01,0.71,0.07,1.109c-0.6,0.35-0.899,0.49-1.359,0.62 c-0.42,0.12-0.979,0.189-1.489,0.189c-0.95,0-1.699-0.239-2.279-0.739c-0.78-0.689-1.229-1.839-1.229-3.188 c0-2.408,1.359-3.938,3.488-3.938c0.89,0,1.609,0.25,2.139,0.739c0.33,0.31,0.51,0.6,0.729,1.14l-0.779,0.26 c-0.36-0.979-1.029-1.439-2.099-1.439c-1.649,0-2.659,1.229-2.659,3.238c0,1.069,0.29,1.949,0.839,2.539 c0.45,0.479,1.069,0.719,1.859,0.719s1.429-0.18,2.019-0.56v-2.009H21.598z"></path>
  <path d="M29.998,20.992c-0.08-0.36-0.19-0.71-0.31-1.02l-0.52-1.29H25.68l-0.52,1.29c-0.15,0.38-0.24,0.669-0.31,1.02h-1.039 c0.2-0.33,0.27-0.48,0.54-1.149l2.239-5.518c0.19-0.47,0.27-0.699,0.32-0.93h1.009c0.04,0.19,0.09,0.32,0.34,0.93l2.239,5.518 c0.25,0.6,0.38,0.889,0.53,1.149H29.998z M27.639,14.695c-0.03-0.08-0.03-0.09-0.22-0.64c-0.05,0.149-0.09,0.26-0.11,0.33 c-0.06,0.159-0.09,0.27-0.11,0.31l-1.279,3.298h3.009L27.639,14.695z"></path>
  <path d="M33.15,15.484c-0.15-0.319-0.26-0.629-0.45-1.239c0.03,0.43,0.07,1.05,0.07,1.29v4.277c0,0.529,0.02,0.84,0.08,1.18 h-0.91c0.06-0.37,0.08-0.66,0.08-1.18v-5.228c0-0.499-0.02-0.819-0.08-1.189H33.1c0.06,0.301,0.18,0.66,0.33,0.99l2.469,5.507 l2.458-5.507c0.17-0.39,0.28-0.7,0.34-0.99h1.149c-0.06,0.38-0.08,0.67-0.08,1.189v5.228c0,0.55,0.02,0.819,0.08,1.18h-0.91 c0.06-0.34,0.08-0.7,0.08-1.18v-4.338c0-0.279,0.03-0.819,0.07-1.229c-0.1,0.41-0.24,0.81-0.43,1.22l-2.039,4.487 c-0.2,0.45-0.3,0.71-0.379,1.04h-0.71c-0.05-0.261-0.17-0.6-0.37-1.05L33.15,15.484z"></path>
  <path d="M46.537,21.062c-0.319-0.05-0.589-0.069-1.119-0.069H42.49c-0.48,0-0.76,0.01-1.1,0.029c0.06-0.38,0.08-0.68,0.08-1.189 v-5.327c0-0.43-0.021-0.699-0.08-1.139c0.35,0.02,0.619,0.029,1.1,0.029h2.848c0.44,0,0.78-0.02,1.12-0.069v0.84 c-0.351-0.051-0.62-0.07-1.12-0.07H42.26v2.559h2.629c0.439,0,0.739-0.021,1.119-0.07v0.84c-0.34-0.05-0.6-0.07-1.119-0.07H42.26 v2.938h3.168c0.46,0,0.74-0.02,1.109-0.069V21.062z"></path>
 </g>
 <polyline class="pointer" points="0,30 26,30 30,34 34,30 61,30 61,60, 0,60" fill="#fff" fill-opacity="0.8"></polyline>
 <g transform="translate(-1,28)" fill="#000" stroke="#000" stroke-linejoin="round" stroke-linecap="round" stroke-width="0.5">
  <path d="M21.598,17.863c-0.52,0-0.75,0.01-1.029,0.061v-0.81c0.3,0.05,0.55,0.06,1.089,0.06h0.29c0.47,0,0.75-0.01,1.059-0.04 c-0.06,0.42-0.07,0.67-0.07,1.13v0.919c0,0.47,0.01,0.71,0.07,1.109c-0.6,0.35-0.899,0.49-1.359,0.62 c-0.42,0.12-0.979,0.189-1.489,0.189c-0.95,0-1.699-0.239-2.279-0.739c-0.78-0.689-1.229-1.839-1.229-3.188 c0-2.408,1.359-3.938,3.488-3.938c0.89,0,1.609,0.25,2.139,0.739c0.33,0.31,0.51,0.6,0.729,1.14l-0.779,0.26 c-0.36-0.979-1.029-1.439-2.099-1.439c-1.649,0-2.659,1.229-2.659,3.238c0,1.069,0.29,1.949,0.839,2.539 c0.45,0.479,1.069,0.719,1.859,0.719s1.429-0.18,2.019-0.56v-2.009H21.598z"></path>
  <path d="M29.998,20.992c-0.08-0.36-0.19-0.71-0.31-1.02l-0.52-1.29H25.68l-0.52,1.29c-0.15,0.38-0.24,0.669-0.31,1.02h-1.039 c0.2-0.33,0.27-0.48,0.54-1.149l2.239-5.518c0.19-0.47,0.27-0.699,0.32-0.93h1.009c0.04,0.19,0.09,0.32,0.34,0.93l2.239,5.518 c0.25,0.6,0.38,0.889,0.53,1.149H29.998z M27.639,14.695c-0.03-0.08-0.03-0.09-0.22-0.64c-0.05,0.149-0.09,0.26-0.11,0.33 c-0.06,0.159-0.09,0.27-0.11,0.31l-1.279,3.298h3.009L27.639,14.695z"></path>
  <path d="M33.15,15.484c-0.15-0.319-0.26-0.629-0.45-1.239c0.03,0.43,0.07,1.05,0.07,1.29v4.277c0,0.529,0.02,0.84,0.08,1.18 h-0.91c0.06-0.37,0.08-0.66,0.08-1.18v-5.228c0-0.499-0.02-0.819-0.08-1.189H33.1c0.06,0.301,0.18,0.66,0.33,0.99l2.469,5.507 l2.458-5.507c0.17-0.39,0.28-0.7,0.34-0.99h1.149c-0.06,0.38-0.08,0.67-0.08,1.189v5.228c0,0.55,0.02,0.819,0.08,1.18h-0.91 c0.06-0.34,0.08-0.7,0.08-1.18v-4.338c0-0.279,0.03-0.819,0.07-1.229c-0.1,0.41-0.24,0.81-0.43,1.22l-2.039,4.487 c-0.2,0.45-0.3,0.71-0.379,1.04h-0.71c-0.05-0.261-0.17-0.6-0.37-1.05L33.15,15.484z"></path>
  <path d="M46.537,21.062c-0.319-0.05-0.589-0.069-1.119-0.069H42.49c-0.48,0-0.76,0.01-1.1,0.029c0.06-0.38,0.08-0.68,0.08-1.189 v-5.327c0-0.43-0.021-0.699-0.08-1.139c0.35,0.02,0.619,0.029,1.1,0.029h2.848c0.44,0,0.78-0.02,1.12-0.069v0.84 c-0.351-0.051-0.62-0.07-1.12-0.07H42.26v2.559h2.629c0.439,0,0.739-0.021,1.119-0.07v0.84c-0.34-0.05-0.6-0.07-1.119-0.07H42.26 v2.938h3.168c0.46,0,0.74-0.02,1.109-0.069V21.062z"></path>
 </g>
</svg>
