<svg xmlns="http://www.w3.org/2000/svg" width="61" height="60">
<g transform="translate(0,5)" fill="#000" stroke="#000" stroke-linejoin="round" stroke-linecap="round" stroke-width="0.1">
 <path fill="#fff" d="M0 -5h61v30H0"/>
 <path fill="#fff" fill-opacity=".8" d="M0 25h26l4 4 4-4h27v30H0"/>
 <path d="M10.664 0a7.697 7.697 0 0 0-.091 1.23v5.897a7.1 7.1 0 0 0 .091 1.23H9.627a7.81 7.81 0 0 0 .086-1.23V1.23A7.68 7.68 0 0 0 9.627 0zM12.297 8.357a7.925 7.925 0 0 0 .08-1.24V3.668a8.546 8.546 0 0 0-.08-1.24h.897v.607q-.005.145-.022.397a2.11 2.11 0 0 1 1.96-1.128 1.8 1.8 0 0 1 1.424.559 1.749 1.749 0 0 1 .328.639 2.766 2.766 0 0 1 .607-.725 2.219 2.219 0 0 1 1.44-.473 1.863 1.863 0 0 1 1.6.672 1.763 1.763 0 0 1 .306.687 3.408 3.408 0 0 1 .07.752v2.712a7.35 7.35 0 0 0 .075 1.23h-.988a8.627 8.627 0 0 0 .08-1.24V4.522a1.905 1.905 0 0 0-.22-1.025 1.096 1.096 0 0 0-.999-.478 1.606 1.606 0 0 0-1.208.51 2.096 2.096 0 0 0-.478.816 2.069 2.069 0 0 0-.113.613v2.17a7.246 7.246 0 0 0 .075 1.23h-.988a8.627 8.627 0 0 0 .08-1.241V4.522a1.645 1.645 0 0 0-.354-1.154 1.143 1.143 0 0 0-.876-.344 1.581 1.581 0 0 0-.988.338 1.984 1.984 0 0 0-.65.892 2.074 2.074 0 0 0-.161.704v2.159a9.099 9.099 0 0 0 .075 1.24zM23.512 10.672h-.972a9.564 9.564 0 0 0 .08-1.235V3.695a8.533 8.533 0 0 0-.08-1.267h.886v.634q-.005.22-.032.445a2.539 2.539 0 0 1 2.24-1.192 2.541 2.541 0 0 1 1.895.714 2.485 2.485 0 0 1 .564.854 4.107 4.107 0 0 1 .269 1.499 3.598 3.598 0 0 1-.42 1.805 2.381 2.381 0 0 1-1.004.977 2.757 2.757 0 0 1-1.278.295 2.688 2.688 0 0 1-1.81-.639 2.717 2.717 0 0 1-.456-.526 7.354 7.354 0 0 1 .043.773v1.36a8.045 8.045 0 0 0 .075 1.245zm2.03-7.637a1.95 1.95 0 0 0-1.499.633 2.454 2.454 0 0 0-.601 1.735 2.692 2.692 0 0 0 .338 1.38 1.818 1.818 0 0 0 .838.758 2.22 2.22 0 0 0 .956.21 1.747 1.747 0 0 0 1.3-.5 2.539 2.539 0 0 0 .634-1.864 2.489 2.489 0 0 0-.645-1.885 1.856 1.856 0 0 0-1.321-.467zM33.201 3.271a3.177 3.177 0 0 0-.887-.161 1.607 1.607 0 0 0-1.353.671 1.824 1.824 0 0 0-.322.607 2.379 2.379 0 0 0-.08.5v2.234a8.076 8.076 0 0 0 .075 1.235h-.988a11.19 11.19 0 0 0 .08-1.24V3.668a7.925 7.925 0 0 0-.08-1.24h.913v.628c-.004.158-.008.269-.011.333a2.041 2.041 0 0 1 1.52-1.031 3.119 3.119 0 0 1 .43-.027 5.761 5.761 0 0 1 .944.097zM34.93 5.516a3.75 3.75 0 0 0 .113.86 1.965 1.965 0 0 0 .736 1.09 1.908 1.908 0 0 0 1.144.344 1.819 1.819 0 0 0 1.45-.629 2.015 2.015 0 0 0 .36-.655l.779.3a3.235 3.235 0 0 1-.602.914 2.732 2.732 0 0 1-2.003.773 2.653 2.653 0 0 1-1.96-.746 2.546 2.546 0 0 1-.57-.86 4.093 4.093 0 0 1-.28-1.509 4.037 4.037 0 0 1 .275-1.488 2.473 2.473 0 0 1 1.036-1.257 2.684 2.684 0 0 1 1.418-.37 2.523 2.523 0 0 1 1.859.709 2.87 2.87 0 0 1 .687 1.192 5.087 5.087 0 0 1 .167 1.037l.022.295zm.033-.687h3.722a2.278 2.278 0 0 0-.403-1.15 1.784 1.784 0 0 0-.612-.515 1.81 1.81 0 0 0-.812-.188 1.692 1.692 0 0 0-1.46.709 2.18 2.18 0 0 0-.334.66 3.384 3.384 0 0 0-.101.484zM41.435 6.601a1.928 1.928 0 0 0 .145.483 1.534 1.534 0 0 0 1.515.704 1.997 1.997 0 0 0 1.122-.28.89.89 0 0 0 .435-.783.73.73 0 0 0-.339-.672 2.622 2.622 0 0 0-.724-.274q-.157-.043-.57-.129a8.356 8.356 0 0 1-.998-.257 1.52 1.52 0 0 1-1.225-1.467 1.436 1.436 0 0 1 .467-1.069 2.416 2.416 0 0 1 1.735-.574 2.531 2.531 0 0 1 1.719.526 1.698 1.698 0 0 1 .451.634 3.245 3.245 0 0 1 .123.365l-.864.15a1.192 1.192 0 0 0-.269-.585 1.51 1.51 0 0 0-1.15-.424 1.567 1.567 0 0 0-1.1.365.824.824 0 0 0-.274.623.659.659 0 0 0 .37.612 5.141 5.141 0 0 0 1.22.376 8.525 8.525 0 0 1 1.197.328 1.639 1.639 0 0 1 .897.72 1.492 1.492 0 0 1 .183.725 1.557 1.557 0 0 1-.317.977 1.825 1.825 0 0 1-.742.559 3.527 3.527 0 0 1-1.385.247 3.126 3.126 0 0 1-1.655-.387 1.719 1.719 0 0 1-.714-.827 3.095 3.095 0 0 1-.156-.52zM47.343 6.601a1.928 1.928 0 0 0 .145.483 1.534 1.534 0 0 0 1.515.704 1.997 1.997 0 0 0 1.122-.28.89.89 0 0 0 .436-.783.73.73 0 0 0-.34-.672 2.622 2.622 0 0 0-.724-.274q-.157-.043-.57-.129a8.357 8.357 0 0 1-.998-.257 1.52 1.52 0 0 1-1.225-1.467 1.436 1.436 0 0 1 .467-1.069 2.416 2.416 0 0 1 1.735-.574 2.531 2.531 0 0 1 1.719.526 1.698 1.698 0 0 1 .451.634 3.459 3.459 0 0 1 .123.365l-.864.15a1.192 1.192 0 0 0-.269-.585 1.511 1.511 0 0 0-1.149-.424 1.567 1.567 0 0 0-1.102.365.824.824 0 0 0-.273.623.659.659 0 0 0 .37.612 5.142 5.142 0 0 0 1.22.376 8.526 8.526 0 0 1 1.197.328 1.639 1.639 0 0 1 .898.72 1.49 1.49 0 0 1 .181.725 1.563 1.563 0 0 1-.316.977 1.825 1.825 0 0 1-.741.559 3.527 3.527 0 0 1-1.386.247 3.126 3.126 0 0 1-1.654-.387 1.719 1.719 0 0 1-.714-.827 3.095 3.095 0 0 1-.157-.52zM21.355 21.558h-.86q-.037-.237-.279-1.064l-1.45-4.737q-.23-.779-.327-1.268l-.043.183q-.081.333-.29 1.085l-1.44 4.743a10.446 10.446 0 0 0-.28 1.058h-.848q-.032-.21-.295-1.09l-1.746-6.022a8.589 8.589 0 0 0-.446-1.246h1.112a5.8 5.8 0 0 0 .21 1.15l1.3 4.77q.096.359.295 1.245.172-.757.333-1.257l1.471-4.823q.13-.419.22-.87c.011-.068.02-.14.028-.215h.827a7.492 7.492 0 0 0 .263 1.08l1.472 4.818q.096.31.252.94l.08.327.146-.623q.117-.532.15-.65l1.3-4.742a5.829 5.829 0 0 0 .21-1.15h1.1a9.715 9.715 0 0 0-.435 1.246l-1.745 6.021q-.242.838-.285 1.09zM28.665 21.558v-.785a4.549 4.549 0 0 1-.53.433 2.491 2.491 0 0 1-.485.244 3.161 3.161 0 0 1-1.171.22 2.074 2.074 0 0 1-1.38-.43A1.534 1.534 0 0 1 24.56 20a1.686 1.686 0 0 1 .355-1.074 2.947 2.947 0 0 1 1.928-.892 14.659 14.659 0 0 1 1.821-.129v-.639q0-1.133-1.391-1.133a1.799 1.799 0 0 0-1.354.473 1.734 1.734 0 0 0-.343.639l-.854-.183a3.35 3.35 0 0 1 .311-.65 1.97 1.97 0 0 1 .892-.72 3.444 3.444 0 0 1 1.343-.241 2.426 2.426 0 0 1 1.74.548 1.673 1.673 0 0 1 .456 1.262v3.083a7.753 7.753 0 0 0 .086 1.214zm0-3.003a7.783 7.783 0 0 0-2.433.317A1.176 1.176 0 0 0 25.399 20a.963.963 0 0 0 .188.602 1.007 1.007 0 0 0 .43.295 1.563 1.563 0 0 0 .553.097 2.355 2.355 0 0 0 1.144-.307 1.887 1.887 0 0 0 .849-.81 1.498 1.498 0 0 0 .102-.607zM32.763 13.995a7.172 7.172 0 0 0-.08 1.214v.419h.526a8.195 8.195 0 0 0 1.128-.064v.832a7.8 7.8 0 0 0-1.123-.064h-.531v3.83a.86.86 0 0 0 .144.59.73.73 0 0 0 .537.183 1.762 1.762 0 0 0 .876-.285l.242.768a3.332 3.332 0 0 1-1.24.252 1.188 1.188 0 0 1-1.392-1.401v-3.937h-.44a7.921 7.921 0 0 0-.989.064v-.832a6.138 6.138 0 0 0 .988.064h.44v-.419a7.41 7.41 0 0 0-.08-1.214zM40.4 17.19l-.8.248a1.673 1.673 0 0 0-1.66-1.262 1.787 1.787 0 0 0-1.278.483 2.554 2.554 0 0 0-.698 1.945 3.292 3.292 0 0 0 .215 1.187 1.807 1.807 0 0 0 .762.913 1.997 1.997 0 0 0 1.048.274 1.59 1.59 0 0 0 1.434-.71 2.044 2.044 0 0 0 .236-.558l.822.226a3.537 3.537 0 0 1-.45.837 2.481 2.481 0 0 1-2.08.93 2.704 2.704 0 0 1-1.992-.758 2.478 2.478 0 0 1-.57-.864 3.911 3.911 0 0 1-.274-1.461 4.04 4.04 0 0 1 .285-1.515 2.508 2.508 0 0 1 1.042-1.252 2.729 2.729 0 0 1 1.455-.38 2.622 2.622 0 0 1 1.628.499 2.793 2.793 0 0 1 .875 1.219zM41.743 21.558a7.917 7.917 0 0 0 .081-1.241v-5.881a7.743 7.743 0 0 0-.08-1.236h.977a8.502 8.502 0 0 0-.075 1.246v1.864q0 .23-.033.553a2.785 2.785 0 0 1 .597-.752 2.43 2.43 0 0 1 1.648-.59 2.15 2.15 0 0 1 1.365.418 1.93 1.93 0 0 1 .687 1.622v2.767a8.295 8.295 0 0 0 .081 1.23h-.994a7.545 7.545 0 0 0 .081-1.241v-2.594a1.486 1.486 0 0 0-.408-1.16 1.327 1.327 0 0 0-.919-.317 1.92 1.92 0 0 0-1.552.805 2.96 2.96 0 0 0-.44.747 3.406 3.406 0 0 0-.113.408v2.11a8.734 8.734 0 0 0 .08 1.242z"/>
 <path d="M9.455 30.842a9.222 9.222 0 0 0-.091 1.418v5.919a8.546 8.546 0 0 0 .091 1.418H7.79a8.677 8.677 0 0 0 .091-1.418v-5.92a9.57 9.57 0 0 0-.091-1.417zM10.921 39.597a11.078 11.078 0 0 0 .081-1.435v-3.448a10.028 10.028 0 0 0-.08-1.44h1.482v.559l-.01.414a1.732 1.732 0 0 1 .499-.607 2.45 2.45 0 0 1 1.546-.5 1.986 1.986 0 0 1 1.419.495 1.312 1.312 0 0 1 .268.344 2.63 2.63 0 0 1 .14.316 4.554 4.554 0 0 1 .435-.505 2.399 2.399 0 0 1 1.724-.644 2.111 2.111 0 0 1 1.649.628 1.878 1.878 0 0 1 .435.822 3.779 3.779 0 0 1 .08.854v2.718a10.64 10.64 0 0 0 .08 1.429h-1.584a10.189 10.189 0 0 0 .081-1.435v-2.465a1.757 1.757 0 0 0-.247-1.048.981.981 0 0 0-.833-.359 1.323 1.323 0 0 0-.897.327 1.905 1.905 0 0 0-.526.726 3.288 3.288 0 0 0-.172.634v2.191a10.568 10.568 0 0 0 .08 1.429h-1.584a9.51 9.51 0 0 0 .086-1.435v-2.465q0-1.385-1.069-1.385a1.386 1.386 0 0 0-1.133.574 2.151 2.151 0 0 0-.295.505 3.252 3.252 0 0 0-.172.59v2.181a11.636 11.636 0 0 0 .08 1.435zM23.506 33.274v.538a3.5 3.5 0 0 1-.022.392 3.063 3.063 0 0 1 .607-.601 2.757 2.757 0 0 1 1.644-.479 2.805 2.805 0 0 1 2.084.773 3.446 3.446 0 0 1 .87 2.536 4.341 4.341 0 0 1-.29 1.595 2.472 2.472 0 0 1-.57.86 2.86 2.86 0 0 1-2.116.789 2.808 2.808 0 0 1-1.632-.473 2.508 2.508 0 0 1-.597-.59c.008.096.015.214.022.354.003.083.005.238.005.468v.848a10.03 10.03 0 0 0 .08 1.455H22.03a13.955 13.955 0 0 0 .08-1.45v-5.543a11.664 11.664 0 0 0-.08-1.472zm1.96 1.032a1.78 1.78 0 0 0-1.235.472 2.08 2.08 0 0 0-.677 1.612 2.41 2.41 0 0 0 .28 1.166 1.783 1.783 0 0 0 .902.805 2.007 2.007 0 0 0 .773.156 1.694 1.694 0 0 0 1-.301 1.595 1.595 0 0 0 .488-.57 2.721 2.721 0 0 0 .263-1.24 2.276 2.276 0 0 0-.548-1.611 1.444 1.444 0 0 0-.66-.398 1.853 1.853 0 0 0-.586-.091zM34.414 33.274l-.376 1.386a3.728 3.728 0 0 0-.993-.182 1.594 1.594 0 0 0-1.274.537 1.86 1.86 0 0 0-.327.537 2.764 2.764 0 0 0-.118.58v2.03a11.476 11.476 0 0 0 .08 1.435h-1.584a12.237 12.237 0 0 0 .08-1.435v-3.448a10.52 10.52 0 0 0-.08-1.44h1.504v1.032a2.131 2.131 0 0 1 2.068-1.155 6.244 6.244 0 0 1 1.02.123zM36.358 36.798a3 3 0 0 0 .13.741 1.595 1.595 0 0 0 .622.816 1.797 1.797 0 0 0 1.027.296 1.674 1.674 0 0 0 1.315-.547 1.922 1.922 0 0 0 .317-.576l1.3.409a4.08 4.08 0 0 1-.419.74 3.008 3.008 0 0 1-2.513 1.124 3.067 3.067 0 0 1-2.262-.844 2.81 2.81 0 0 1-.628-.945 4.382 4.382 0 0 1-.006-3.12 2.736 2.736 0 0 1 1.155-1.381 3.107 3.107 0 0 1 1.66-.435 2.89 2.89 0 0 1 2.105.79 3.32 3.32 0 0 1 .898 1.906c.024.18.044.42.058.72 0 .025.008.127.022.306zm.028-1.09h3.32a1.974 1.974 0 0 0-.34-.892 1.491 1.491 0 0 0-1.272-.607 1.585 1.585 0 0 0-1.268.537 2.026 2.026 0 0 0-.44.962zM43.459 37.61a1.769 1.769 0 0 0 .14.412 1.341 1.341 0 0 0 1.305.623 1.82 1.82 0 0 0 .956-.22.691.691 0 0 0 .366-.612.62.62 0 0 0-.29-.547 1.852 1.852 0 0 0-.591-.226q-.08-.022-.559-.129a7.874 7.874 0 0 1-1.585-.473 1.634 1.634 0 0 1-.789-.725 1.561 1.561 0 0 1-.178-.736 1.6 1.6 0 0 1 .344-1.02 2.637 2.637 0 0 1 2.197-.855 2.926 2.926 0 0 1 2.068.64 1.979 1.979 0 0 1 .457.655c.039.097.088.24.144.43l-1.46.183a1.066 1.066 0 0 0-.22-.505 1.26 1.26 0 0 0-.995-.355 1.325 1.325 0 0 0-.913.285.61.61 0 0 0-.225.483.564.564 0 0 0 .344.516 4.841 4.841 0 0 0 1.09.328 6.888 6.888 0 0 1 1.745.542 1.544 1.544 0 0 1 .833 1.434 1.778 1.778 0 0 1-.354 1.096 2.11 2.11 0 0 1-.951.67 4.216 4.216 0 0 1-1.504.243 2.864 2.864 0 0 1-2.46-.973 2.235 2.235 0 0 1-.295-.547c-.032-.097-.075-.24-.129-.43zM49.985 37.61a1.724 1.724 0 0 0 .14.412 1.34 1.34 0 0 0 1.305.623 1.819 1.819 0 0 0 .956-.22.69.69 0 0 0 .365-.612.62.62 0 0 0-.29-.547 1.85 1.85 0 0 0-.59-.226q-.08-.022-.56-.129a7.86 7.86 0 0 1-1.584-.473 1.637 1.637 0 0 1-.79-.725 1.56 1.56 0 0 1-.176-.736 1.595 1.595 0 0 1 .343-1.02 2.636 2.636 0 0 1 2.197-.855 2.928 2.928 0 0 1 2.068.64 1.962 1.962 0 0 1 .456.655c.04.097.088.24.146.43l-1.461.183a1.066 1.066 0 0 0-.22-.505 1.26 1.26 0 0 0-.994-.355 1.323 1.323 0 0 0-.913.285.61.61 0 0 0-.226.483.563.563 0 0 0 .344.516 4.828 4.828 0 0 0 1.09.328 6.913 6.913 0 0 1 1.746.542 1.545 1.545 0 0 1 .832 1.434 1.777 1.777 0 0 1-.354 1.096 2.11 2.11 0 0 1-.95.67 4.22 4.22 0 0 1-1.505.243 2.863 2.863 0 0 1-2.46-.973 2.206 2.206 0 0 1-.296-.547c-.032-.097-.075-.24-.129-.43zM21.021 52.797H19.55a9.254 9.254 0 0 0-.258-1.117l-1.176-4.082q-.178-.618-.323-1.418-.182.918-.327 1.418L16.3 51.685a9.969 9.969 0 0 0-.258 1.112h-1.466q-.048-.296-.285-1.139l-1.761-6.311a9.299 9.299 0 0 0-.435-1.305h1.767a5.973 5.973 0 0 0 .188 1.182l1.02 4.19q.199.89.269 1.299.15-.725.306-1.31l1.225-4.244a5.802 5.802 0 0 0 .236-1.117h1.353a7.885 7.885 0 0 0 .258 1.096l1.225 4.232q.113.381.317 1.343.06-.28.118-.645.113-.586.145-.709l1.026-4.141a8.664 8.664 0 0 0 .161-.865c.01-.1.02-.204.027-.311h1.756a11.781 11.781 0 0 0-.43 1.305l-1.756 6.305-.123.457q-.118.446-.162.688zM28.466 52.797v-.715a2.78 2.78 0 0 1-2.192.822 2.254 2.254 0 0 1-1.697-.59 1.897 1.897 0 0 1-.048-2.423 2.107 2.107 0 0 1 .827-.613 6.176 6.176 0 0 1 1.681-.376q.5-.052 1.429-.075v-.553a.846.846 0 0 0-.242-.65 1.423 1.423 0 0 0-1.02-.316 1.847 1.847 0 0 0-1.144.311 1.1 1.1 0 0 0-.247.266 2.148 2.148 0 0 0-.194.437l-1.412-.247a3.166 3.166 0 0 1 .419-.8 2.489 2.489 0 0 1 1.326-.854 4.78 4.78 0 0 1 1.225-.134 3.864 3.864 0 0 1 1.654.28 1.733 1.733 0 0 1 .902.934 2.793 2.793 0 0 1 .13.95v2.97a9.624 9.624 0 0 0 .085 1.376zm0-3.008a6.632 6.632 0 0 0-2.245.327.974.974 0 0 0-.688.935.727.727 0 0 0 .306.644 1.214 1.214 0 0 0 .699.194 2.327 2.327 0 0 0 .972-.21 1.417 1.417 0 0 0 .956-1.337zM33.584 44.788a8.887 8.887 0 0 0-.08 1.349v.338h.462a8.447 8.447 0 0 0 1.111-.059v1.283a8.53 8.53 0 0 0-1.079-.064h-.494v3.41a.735.735 0 0 0 .187.592.894.894 0 0 0 .554.14 1.364 1.364 0 0 0 .349-.044 2.228 2.228 0 0 0 .435-.199l.204 1.166a3.877 3.877 0 0 1-1.38.236 2.045 2.045 0 0 1-1.332-.354 1.15 1.15 0 0 1-.355-.548 2.498 2.498 0 0 1-.08-.698v-3.701h-.425a7.827 7.827 0 0 0-.977.064V46.41a6.304 6.304 0 0 0 .994.065h.408v-.338a9.211 9.211 0 0 0-.081-1.349zM41.77 48.264l-1.348.322a2.225 2.225 0 0 0-.333-.672 1.37 1.37 0 0 0-1.134-.505 1.581 1.581 0 0 0-1.128.425 2.366 2.366 0 0 0-.623 1.788 3.22 3.22 0 0 0 .21 1.16 1.61 1.61 0 0 0 .682.827 1.743 1.743 0 0 0 .902.232 1.427 1.427 0 0 0 1.263-.612 1.844 1.844 0 0 0 .225-.548l1.359.268a3.519 3.519 0 0 1-.462.94 2.558 2.558 0 0 1-.832.736 3.236 3.236 0 0 1-1.58.37 3.076 3.076 0 0 1-2.277-.86 2.786 2.786 0 0 1-.623-.934 4.09 4.09 0 0 1-.295-1.552 3.795 3.795 0 0 1 .504-1.993 2.718 2.718 0 0 1 1.123-1.052 3.354 3.354 0 0 1 1.52-.333 2.974 2.974 0 0 1 1.923.607 2.622 2.622 0 0 1 .736.935q.075.16.188.45zM44.493 44.042c-.03.204-.047.361-.054.473a8.72 8.72 0 0 0-.027.902.664.664 0 0 1 .006.07v1.584a.353.353 0 0 0-.006.086 3.603 3.603 0 0 1-.016.37 3.854 3.854 0 0 1 .624-.644 2.635 2.635 0 0 1 1.654-.516 2.404 2.404 0 0 1 1.305.328 2.061 2.061 0 0 1 .902 1.891v2.782a9.187 9.187 0 0 0 .08 1.429h-1.589a12.093 12.093 0 0 0 .086-1.435v-2.449a1.349 1.349 0 0 0-.516-1.246 1.184 1.184 0 0 0-.612-.155 1.707 1.707 0 0 0-1.252.595 3.569 3.569 0 0 0-.66 1.038v2.217a10.642 10.642 0 0 0 .08 1.435h-1.579a10.237 10.237 0 0 0 .092-1.435v-5.886a9.953 9.953 0 0 0-.081-1.434z" fill="#050000"/>
</g>
</svg>