<?xml version="1.0" encoding="UTF-8" standalone="no"?>
<svg xmlns="http://www.w3.org/2000/svg" version="1.1" x="0" y="0" width="61px" height="60px" viewBox="0 0 61 60">
 <polyline class="pointer" points="0,0 61,0 61,30, 0,30" fill="#fff"></polyline>
 <g transform="translate(-1,-2)" fill="#000" stroke="#000" stroke-linejoin="round" stroke-linecap="round" stroke-width="0.1">
  <path d="M6.202,12.879c-0.065,0.362-0.099,0.77-0.099,1.231v5.897c0,0.483,0.033,0.857,0.099,1.231H5.157 c0.066-0.406,0.088-0.682,0.088-1.231V14.11c0-0.55-0.021-0.836-0.088-1.231H6.202z"></path>
  <path d="M9.073,12.879c0.1,0.253,0.242,0.494,0.562,0.989l3.477,5.204c0.121,0.188,0.451,0.727,0.715,1.199 c-0.044-0.88-0.066-1.364-0.066-1.463v-4.665c0-0.539-0.021-0.88-0.088-1.265h1.023c-0.066,0.396-0.088,0.704-0.088,1.265v5.864 c0,0.55,0.021,0.88,0.088,1.231h-1.199c-0.154-0.318-0.275-0.539-0.572-0.99l-3.531-5.303c-0.088-0.132-0.451-0.759-0.605-1.056 c0.044,0.517,0.066,1.056,0.066,1.342v4.698c0,0.583,0.021,0.946,0.088,1.309H7.918c0.066-0.352,0.088-0.736,0.088-1.309v-5.82 c0-0.506-0.021-0.836-0.088-1.231H9.073z"></path>
  <path d="M19.557,19.996c0,0.539,0.022,0.848,0.088,1.243H18.61c0.066-0.341,0.088-0.726,0.088-1.243v-6.348h-1.716 c-0.562,0-0.902,0.022-1.266,0.077v-0.924c0.386,0.055,0.672,0.077,1.255,0.077h4.29c0.639,0,0.936-0.022,1.299-0.077v0.924 c-0.363-0.055-0.683-0.077-1.299-0.077h-1.705V19.996z"></path>
  <path d="M29.215,21.316c-0.352-0.055-0.649-0.077-1.232-0.077h-3.224c-0.527,0-0.836,0.012-1.21,0.033 c0.066-0.418,0.088-0.748,0.088-1.309V14.1c0-0.473-0.021-0.771-0.088-1.254c0.386,0.021,0.683,0.033,1.21,0.033h3.136 c0.484,0,0.858-0.022,1.232-0.077v0.924c-0.385-0.055-0.683-0.077-1.232-0.077h-3.389v2.816h2.894 c0.484,0,0.814-0.021,1.232-0.077v0.925c-0.374-0.056-0.66-0.077-1.232-0.077h-2.894v3.234h3.488 c0.506,0,0.813-0.022,1.221-0.077V21.316z"></path>
  <path d="M36.188,21.239c-0.033-0.33-0.187-0.78-0.649-1.881c-0.638-1.507-1.066-1.937-1.947-1.937h-2.035v2.574 c0,0.562,0.022,0.848,0.088,1.243h-1.022c0.065-0.396,0.088-0.692,0.088-1.231V14.11c0-0.473-0.022-0.825-0.088-1.265 c0.385,0.021,0.692,0.033,1.199,0.033h2.42c1.596,0,2.476,0.748,2.476,2.112c0,0.704-0.209,1.231-0.66,1.617 c-0.319,0.285-0.594,0.418-1.188,0.55c0.451,0.132,0.727,0.429,1.122,1.21c0.265,0.518,0.528,1.089,0.869,1.849 c0.188,0.429,0.342,0.759,0.495,1.022H36.188z M34.164,16.663c0.495,0,0.946-0.176,1.243-0.474 c0.286-0.274,0.418-0.638,0.418-1.11c0-0.936-0.55-1.441-1.595-1.441h-2.674v3.025H34.164z"></path>
  <path d="M39.785,12.879c0.1,0.253,0.242,0.494,0.562,0.989l3.477,5.204c0.121,0.188,0.451,0.727,0.715,1.199 c-0.044-0.88-0.066-1.364-0.066-1.463v-4.665c0-0.539-0.021-0.88-0.088-1.265h1.023c-0.066,0.396-0.088,0.704-0.088,1.265v5.864 c0,0.55,0.021,0.88,0.088,1.231h-1.199c-0.154-0.318-0.275-0.539-0.572-0.99l-3.531-5.303c-0.088-0.132-0.451-0.759-0.605-1.056 c0.044,0.517,0.066,1.056,0.066,1.342v4.698c0,0.583,0.021,0.946,0.088,1.309H38.63c0.066-0.352,0.088-0.736,0.088-1.309v-5.82 c0-0.506-0.021-0.836-0.088-1.231H39.785z"></path>
  <path d="M52.788,21.316c-0.353-0.055-0.649-0.077-1.232-0.077h-3.224c-0.528,0-0.836,0.012-1.21,0.033 c0.065-0.418,0.088-0.748,0.088-1.309V14.1c0-0.473-0.022-0.771-0.088-1.254c0.385,0.021,0.682,0.033,1.21,0.033h3.136 c0.483,0,0.857-0.022,1.231-0.077v0.924c-0.385-0.055-0.682-0.077-1.231-0.077h-3.389v2.816h2.894 c0.483,0,0.813-0.021,1.231-0.077v0.925c-0.374-0.056-0.66-0.077-1.231-0.077h-2.894v3.234h3.487 c0.506,0,0.814-0.022,1.222-0.077V21.316z"></path>
  <path d="M57.341,19.996c0,0.539,0.022,0.848,0.088,1.243h-1.034c0.066-0.341,0.088-0.726,0.088-1.243v-6.348h-1.716 c-0.562,0-0.902,0.022-1.266,0.077v-0.924c0.386,0.055,0.672,0.077,1.255,0.077h4.29c0.639,0,0.936-0.022,1.299-0.077v0.924 c-0.363-0.055-0.683-0.077-1.299-0.077h-1.705V19.996z"></path>
 </g>
 <polyline class="pointer" points="0,30 26,30 30,34 34,30 61,30 61,60, 0,60" fill="#fff" fill-opacity="0.8"></polyline>
 <g transform="translate(-1,28)" fill="#000" stroke="#000" stroke-linejoin="round" stroke-linecap="round" stroke-width="0.5">
  <path d="M6.202,12.879c-0.065,0.362-0.099,0.77-0.099,1.231v5.897c0,0.483,0.033,0.857,0.099,1.231H5.157 c0.066-0.406,0.088-0.682,0.088-1.231V14.11c0-0.55-0.021-0.836-0.088-1.231H6.202z"></path>
  <path d="M9.073,12.879c0.1,0.253,0.242,0.494,0.562,0.989l3.477,5.204c0.121,0.188,0.451,0.727,0.715,1.199 c-0.044-0.88-0.066-1.364-0.066-1.463v-4.665c0-0.539-0.021-0.88-0.088-1.265h1.023c-0.066,0.396-0.088,0.704-0.088,1.265v5.864 c0,0.55,0.021,0.88,0.088,1.231h-1.199c-0.154-0.318-0.275-0.539-0.572-0.99l-3.531-5.303c-0.088-0.132-0.451-0.759-0.605-1.056 c0.044,0.517,0.066,1.056,0.066,1.342v4.698c0,0.583,0.021,0.946,0.088,1.309H7.918c0.066-0.352,0.088-0.736,0.088-1.309v-5.82 c0-0.506-0.021-0.836-0.088-1.231H9.073z"></path>
  <path d="M19.557,19.996c0,0.539,0.022,0.848,0.088,1.243H18.61c0.066-0.341,0.088-0.726,0.088-1.243v-6.348h-1.716 c-0.562,0-0.902,0.022-1.266,0.077v-0.924c0.386,0.055,0.672,0.077,1.255,0.077h4.29c0.639,0,0.936-0.022,1.299-0.077v0.924 c-0.363-0.055-0.683-0.077-1.299-0.077h-1.705V19.996z"></path>
  <path d="M29.215,21.316c-0.352-0.055-0.649-0.077-1.232-0.077h-3.224c-0.527,0-0.836,0.012-1.21,0.033 c0.066-0.418,0.088-0.748,0.088-1.309V14.1c0-0.473-0.021-0.771-0.088-1.254c0.386,0.021,0.683,0.033,1.21,0.033h3.136 c0.484,0,0.858-0.022,1.232-0.077v0.924c-0.385-0.055-0.683-0.077-1.232-0.077h-3.389v2.816h2.894 c0.484,0,0.814-0.021,1.232-0.077v0.925c-0.374-0.056-0.66-0.077-1.232-0.077h-2.894v3.234h3.488 c0.506,0,0.813-0.022,1.221-0.077V21.316z"></path>
  <path d="M36.188,21.239c-0.033-0.33-0.187-0.78-0.649-1.881c-0.638-1.507-1.066-1.937-1.947-1.937h-2.035v2.574 c0,0.562,0.022,0.848,0.088,1.243h-1.022c0.065-0.396,0.088-0.692,0.088-1.231V14.11c0-0.473-0.022-0.825-0.088-1.265 c0.385,0.021,0.692,0.033,1.199,0.033h2.42c1.596,0,2.476,0.748,2.476,2.112c0,0.704-0.209,1.231-0.66,1.617 c-0.319,0.285-0.594,0.418-1.188,0.55c0.451,0.132,0.727,0.429,1.122,1.21c0.265,0.518,0.528,1.089,0.869,1.849 c0.188,0.429,0.342,0.759,0.495,1.022H36.188z M34.164,16.663c0.495,0,0.946-0.176,1.243-0.474 c0.286-0.274,0.418-0.638,0.418-1.11c0-0.936-0.55-1.441-1.595-1.441h-2.674v3.025H34.164z"></path>
  <path d="M39.785,12.879c0.1,0.253,0.242,0.494,0.562,0.989l3.477,5.204c0.121,0.188,0.451,0.727,0.715,1.199 c-0.044-0.88-0.066-1.364-0.066-1.463v-4.665c0-0.539-0.021-0.88-0.088-1.265h1.023c-0.066,0.396-0.088,0.704-0.088,1.265v5.864 c0,0.55,0.021,0.88,0.088,1.231h-1.199c-0.154-0.318-0.275-0.539-0.572-0.99l-3.531-5.303c-0.088-0.132-0.451-0.759-0.605-1.056 c0.044,0.517,0.066,1.056,0.066,1.342v4.698c0,0.583,0.021,0.946,0.088,1.309H38.63c0.066-0.352,0.088-0.736,0.088-1.309v-5.82 c0-0.506-0.021-0.836-0.088-1.231H39.785z"></path>
  <path d="M52.788,21.316c-0.353-0.055-0.649-0.077-1.232-0.077h-3.224c-0.528,0-0.836,0.012-1.21,0.033 c0.065-0.418,0.088-0.748,0.088-1.309V14.1c0-0.473-0.022-0.771-0.088-1.254c0.385,0.021,0.682,0.033,1.21,0.033h3.136 c0.483,0,0.857-0.022,1.231-0.077v0.924c-0.385-0.055-0.682-0.077-1.231-0.077h-3.389v2.816h2.894 c0.483,0,0.813-0.021,1.231-0.077v0.925c-0.374-0.056-0.66-0.077-1.231-0.077h-2.894v3.234h3.487 c0.506,0,0.814-0.022,1.222-0.077V21.316z"></path>
  <path d="M57.341,19.996c0,0.539,0.022,0.848,0.088,1.243h-1.034c0.066-0.341,0.088-0.726,0.088-1.243v-6.348h-1.716 c-0.562,0-0.902,0.022-1.266,0.077v-0.924c0.386,0.055,0.672,0.077,1.255,0.077h4.29c0.639,0,0.936-0.022,1.299-0.077v0.924 c-0.363-0.055-0.683-0.077-1.299-0.077h-1.705V19.996z"></path>
 </g>
</svg>
