<?xml version="1.0" encoding="UTF-8" standalone="no"?>
<svg xmlns="http://www.w3.org/2000/svg" version="1.1" x="0" y="0" width="61px" height="60px" viewBox="0 0 61 60">
 <polyline class="pointer" points="0,0 61,0 61,30, 0,30" fill="#fff"></polyline>
 <g transform="translate(-1,-2)" fill="#000" stroke="#000" stroke-linejoin="round" stroke-linecap="round" stroke-width="0.1">
  <path d="M25.673,16.024c0.945,0.825,1.573,2.498,1.573,4.203c0,0.704-0.11,1.21-0.319,1.463 c-0.198,0.242-0.484,0.342-1.023,0.342c-0.341,0-0.803-0.033-1.298-0.077c-0.022-0.319-0.066-0.474-0.176-0.737 c0.55,0.11,1.012,0.165,1.419,0.165c0.561,0,0.715-0.265,0.715-1.32c0-0.319-0.011-0.506-0.044-0.825 c-1.166,0.957-2.618,1.684-4.643,2.344c-0.143-0.265-0.242-0.407-0.429-0.616c1.991-0.506,3.696-1.343,4.939-2.409 c-0.088-0.374-0.165-0.595-0.309-0.925c-1.133,0.781-2.486,1.397-4.114,1.87c-0.121-0.264-0.22-0.396-0.407-0.604 c1.001-0.242,1.606-0.44,2.52-0.836c0.671-0.298,1.155-0.562,1.717-0.957c-0.221-0.353-0.386-0.551-0.639-0.771 c-0.814,0.451-1.639,0.781-2.938,1.133c-0.153-0.286-0.22-0.385-0.407-0.583c1.717-0.374,2.795-0.792,3.84-1.507h-1.617 c-0.396,0-0.737,0.021-1.067,0.055v-0.704c0.286,0.044,0.572,0.066,1.067,0.066h4.653c0.518,0,0.804-0.012,1.078-0.066v0.704 c-0.33-0.033-0.659-0.055-1.078-0.055h-1.188c0.242,1.001,0.352,1.375,0.66,2.057c0.781-0.571,1.452-1.231,1.683-1.639 l0.616,0.506c-0.242,0.198-0.242,0.198-0.66,0.594c-0.352,0.342-0.66,0.595-1.342,1.111c0.693,1.222,1.507,2.003,2.904,2.816 c-0.188,0.165-0.341,0.342-0.539,0.616c-0.902-0.648-1.32-1.001-1.782-1.529c-0.825-0.924-1.475-2.123-1.882-3.477 c-0.088-0.286-0.132-0.462-0.274-1.056h-0.33c-0.319,0.274-0.44,0.363-0.792,0.594L25.673,16.024z M25.893,12.813 c0-0.242-0.022-0.44-0.077-0.683h0.858c-0.044,0.242-0.066,0.43-0.066,0.672v0.352h3.257c0.473,0,0.759-0.011,1.111-0.044 c-0.033,0.209-0.044,0.396-0.044,0.727v0.682c0,0.341,0.011,0.518,0.044,0.748H30.26v-1.507h-7.777v1.507h-0.716 c0.033-0.253,0.044-0.429,0.044-0.759v-0.671c0-0.298-0.011-0.495-0.044-0.727c0.353,0.033,0.627,0.044,1.101,0.044h3.025V12.813 z"></path>
  <path d="M34.428,13.055c-0.45,0-0.736,0.011-1.089,0.044v-0.683c0.353,0.044,0.693,0.066,1.122,0.066h5.721 c0.463,0,0.771-0.022,1.09-0.066v0.683c-0.342-0.033-0.572-0.044-1.057-0.044H37.53v0.671h3.246c0.604,0,0.901-0.011,1.21-0.055 c-0.033,0.264-0.044,0.483-0.044,0.836v0.649c0,0.341,0.011,0.539,0.065,0.824h-0.715v-1.716H37.53v1.32 c0,0.55,0.012,0.781,0.056,1.078h-0.792c0.044-0.275,0.065-0.562,0.065-1.078v-1.32h-3.554v1.716h-0.715 c0.044-0.274,0.066-0.495,0.066-0.824v-0.649c0-0.33-0.012-0.562-0.044-0.836c0.297,0.044,0.594,0.055,1.199,0.055h3.047v-0.671 H34.428z M34.274,20.294v0.615h-0.737c0.044-0.274,0.066-0.583,0.066-0.935v-2.035c0-0.396-0.012-0.683-0.045-0.979 c0.275,0.033,0.518,0.044,0.946,0.044h5.545c0.462,0,0.727-0.011,1.001-0.044c-0.032,0.275-0.044,0.55-0.044,0.979v1.606 c0,0.352,0.012,0.571,0.033,0.792c-0.297-0.033-0.572-0.044-0.99-0.044h-2.541v0.748c0,0.264,0.23,0.297,1.771,0.297 c1.309,0,1.892-0.056,2.079-0.209c0.143-0.11,0.187-0.44,0.198-1.299c0.241,0.144,0.274,0.165,0.682,0.309 c-0.021,0.869-0.143,1.298-0.418,1.496c-0.308,0.231-0.936,0.297-2.651,0.297c-2.046,0-2.332-0.088-2.332-0.726v-0.913H34.274z M33.911,14.781c0.209,0.022,0.341,0.033,0.671,0.033h1.023c0.275,0,0.462-0.011,0.638-0.033v0.528 c-0.187-0.033-0.374-0.044-0.638-0.044h-1.023c-0.286,0-0.473,0.011-0.671,0.044V14.781z M33.911,15.838 c0.176,0.033,0.363,0.044,0.671,0.044h1.023c0.275,0,0.451-0.011,0.638-0.044v0.539c-0.187-0.033-0.362-0.044-0.638-0.044h-1.023 c-0.308,0-0.473,0.011-0.671,0.044V15.838z M34.274,17.543v0.781h2.563v-0.781H34.274z M34.274,18.853v0.891h2.563v-0.891H34.274 z M40.336,18.324v-0.781h-2.827v0.781H40.336z M40.336,19.743v-0.891h-2.827v0.891H40.336z M38.202,14.771 c0.176,0.033,0.362,0.044,0.671,0.044h1.199c0.274,0,0.462-0.011,0.638-0.044v0.539c-0.187-0.033-0.363-0.044-0.638-0.044h-1.199 c-0.297,0-0.484,0.011-0.671,0.044V14.771z M38.202,15.838c0.176,0.033,0.362,0.044,0.671,0.044h1.199 c0.264,0,0.462-0.011,0.638-0.044v0.539c-0.187-0.033-0.363-0.044-0.638-0.044h-1.199c-0.309,0-0.474,0.011-0.671,0.044V15.838z"></path>
 </g>
 <polyline class="pointer" points="0,30 26,30 30,34 34,30 61,30 61,60, 0,60" fill="#fff" fill-opacity="0.8"></polyline>
 <g transform="translate(-1,28)" fill="#000" stroke="#000" stroke-linejoin="round" stroke-linecap="round" stroke-width="0.5">
  <path d="M25.673,16.024c0.945,0.825,1.573,2.498,1.573,4.203c0,0.704-0.11,1.21-0.319,1.463 c-0.198,0.242-0.484,0.342-1.023,0.342c-0.341,0-0.803-0.033-1.298-0.077c-0.022-0.319-0.066-0.474-0.176-0.737 c0.55,0.11,1.012,0.165,1.419,0.165c0.561,0,0.715-0.265,0.715-1.32c0-0.319-0.011-0.506-0.044-0.825 c-1.166,0.957-2.618,1.684-4.643,2.344c-0.143-0.265-0.242-0.407-0.429-0.616c1.991-0.506,3.696-1.343,4.939-2.409 c-0.088-0.374-0.165-0.595-0.309-0.925c-1.133,0.781-2.486,1.397-4.114,1.87c-0.121-0.264-0.22-0.396-0.407-0.604 c1.001-0.242,1.606-0.44,2.52-0.836c0.671-0.298,1.155-0.562,1.717-0.957c-0.221-0.353-0.386-0.551-0.639-0.771 c-0.814,0.451-1.639,0.781-2.938,1.133c-0.153-0.286-0.22-0.385-0.407-0.583c1.717-0.374,2.795-0.792,3.84-1.507h-1.617 c-0.396,0-0.737,0.021-1.067,0.055v-0.704c0.286,0.044,0.572,0.066,1.067,0.066h4.653c0.518,0,0.804-0.012,1.078-0.066v0.704 c-0.33-0.033-0.659-0.055-1.078-0.055h-1.188c0.242,1.001,0.352,1.375,0.66,2.057c0.781-0.571,1.452-1.231,1.683-1.639 l0.616,0.506c-0.242,0.198-0.242,0.198-0.66,0.594c-0.352,0.342-0.66,0.595-1.342,1.111c0.693,1.222,1.507,2.003,2.904,2.816 c-0.188,0.165-0.341,0.342-0.539,0.616c-0.902-0.648-1.32-1.001-1.782-1.529c-0.825-0.924-1.475-2.123-1.882-3.477 c-0.088-0.286-0.132-0.462-0.274-1.056h-0.33c-0.319,0.274-0.44,0.363-0.792,0.594L25.673,16.024z M25.893,12.813 c0-0.242-0.022-0.44-0.077-0.683h0.858c-0.044,0.242-0.066,0.43-0.066,0.672v0.352h3.257c0.473,0,0.759-0.011,1.111-0.044 c-0.033,0.209-0.044,0.396-0.044,0.727v0.682c0,0.341,0.011,0.518,0.044,0.748H30.26v-1.507h-7.777v1.507h-0.716 c0.033-0.253,0.044-0.429,0.044-0.759v-0.671c0-0.298-0.011-0.495-0.044-0.727c0.353,0.033,0.627,0.044,1.101,0.044h3.025V12.813 z"></path>
  <path d="M34.428,13.055c-0.45,0-0.736,0.011-1.089,0.044v-0.683c0.353,0.044,0.693,0.066,1.122,0.066h5.721 c0.463,0,0.771-0.022,1.09-0.066v0.683c-0.342-0.033-0.572-0.044-1.057-0.044H37.53v0.671h3.246c0.604,0,0.901-0.011,1.21-0.055 c-0.033,0.264-0.044,0.483-0.044,0.836v0.649c0,0.341,0.011,0.539,0.065,0.824h-0.715v-1.716H37.53v1.32 c0,0.55,0.012,0.781,0.056,1.078h-0.792c0.044-0.275,0.065-0.562,0.065-1.078v-1.32h-3.554v1.716h-0.715 c0.044-0.274,0.066-0.495,0.066-0.824v-0.649c0-0.33-0.012-0.562-0.044-0.836c0.297,0.044,0.594,0.055,1.199,0.055h3.047v-0.671 H34.428z M34.274,20.294v0.615h-0.737c0.044-0.274,0.066-0.583,0.066-0.935v-2.035c0-0.396-0.012-0.683-0.045-0.979 c0.275,0.033,0.518,0.044,0.946,0.044h5.545c0.462,0,0.727-0.011,1.001-0.044c-0.032,0.275-0.044,0.55-0.044,0.979v1.606 c0,0.352,0.012,0.571,0.033,0.792c-0.297-0.033-0.572-0.044-0.99-0.044h-2.541v0.748c0,0.264,0.23,0.297,1.771,0.297 c1.309,0,1.892-0.056,2.079-0.209c0.143-0.11,0.187-0.44,0.198-1.299c0.241,0.144,0.274,0.165,0.682,0.309 c-0.021,0.869-0.143,1.298-0.418,1.496c-0.308,0.231-0.936,0.297-2.651,0.297c-2.046,0-2.332-0.088-2.332-0.726v-0.913H34.274z M33.911,14.781c0.209,0.022,0.341,0.033,0.671,0.033h1.023c0.275,0,0.462-0.011,0.638-0.033v0.528 c-0.187-0.033-0.374-0.044-0.638-0.044h-1.023c-0.286,0-0.473,0.011-0.671,0.044V14.781z M33.911,15.838 c0.176,0.033,0.363,0.044,0.671,0.044h1.023c0.275,0,0.451-0.011,0.638-0.044v0.539c-0.187-0.033-0.362-0.044-0.638-0.044h-1.023 c-0.308,0-0.473,0.011-0.671,0.044V15.838z M34.274,17.543v0.781h2.563v-0.781H34.274z M34.274,18.853v0.891h2.563v-0.891H34.274 z M40.336,18.324v-0.781h-2.827v0.781H40.336z M40.336,19.743v-0.891h-2.827v0.891H40.336z M38.202,14.771 c0.176,0.033,0.362,0.044,0.671,0.044h1.199c0.274,0,0.462-0.011,0.638-0.044v0.539c-0.187-0.033-0.363-0.044-0.638-0.044h-1.199 c-0.297,0-0.484,0.011-0.671,0.044V14.771z M38.202,15.838c0.176,0.033,0.362,0.044,0.671,0.044h1.199 c0.264,0,0.462-0.011,0.638-0.044v0.539c-0.187-0.033-0.363-0.044-0.638-0.044h-1.199c-0.309,0-0.474,0.011-0.671,0.044V15.838z"></path>
 </g>
</svg>
