<?xml version="1.0" encoding="UTF-8" standalone="no"?>
<svg xmlns="http://www.w3.org/2000/svg" version="1.1" x="0" y="0" width="61px" height="60px" viewBox="0 0 61 60">
  <g>
    <polyline points="0 0 61 0 61 30 0 30" style="fill: #fff"/>
    <polyline points="0 30 26 30 30 34 34 30 61 30 61 60 0 60" style="fill: #fff;fill-opacity: 0.800000011920929"/>
  </g>
  <g>
    <g>
      <path d="M7.541,44.743l1.16.838q-.988.79-.988,1.435,0,.532.747.757a6.5,6.5,0,0,0,1.729.167,14.152,14.152,0,0,0,2.589-.231,5.774,5.774,0,0,0,.983-.252l.118,1.8c-.175.008-.5.041-.988.1a19.97,19.97,0,0,1-2.481.172,8.6,8.6,0,0,1-2.9-.36,1.975,1.975,0,0,1-1.466-1.912,2.6,2.6,0,0,1,.585-1.616A5.6,5.6,0,0,1,7.541,44.743Zm-.886-2.331.1-1.579a14.975,14.975,0,0,0,3.48.279,15.217,15.217,0,0,0,2.959-.2l.043,1.45q-.279.123-1.09.606-1,.608-1.9,1.273L9.12,43.417q.682-.451,1.149-.72c.115-.075.215-.137.3-.183q-.617.059-1.251.059a18.4,18.4,0,0,1-2.272-.129Q6.8,42.418,6.654,42.412Z" transform="translate(0 0)"/>
      <path d="M17.7,40.575l1.7-.263a11.262,11.262,0,0,0,.215,1.434q.226,1.134.462,1.929.645-.237,2.782-.908a3.824,3.824,0,0,0,.435-.161l.548,1.665q-.811.145-1.644.376a13.4,13.4,0,0,0-3.593,1.37,1.536,1.536,0,0,0-.816,1.2.809.809,0,0,0,.258.6,3.257,3.257,0,0,0,2.089.445,14.074,14.074,0,0,0,3.1-.316q.338-.081.585-.161l.129,1.794c-.175.007-.485.034-.929.08a26.243,26.243,0,0,1-2.755.178,7.486,7.486,0,0,1-2.6-.36,2.412,2.412,0,0,1-1.23-.918,2.347,2.347,0,0,1-.354-1.284,2.573,2.573,0,0,1,.446-1.461,5.276,5.276,0,0,1,2.052-1.568q-.333-1.106-.709-2.937A6.728,6.728,0,0,0,17.7,40.575Zm3.738.317.972-.393a7.262,7.262,0,0,1,.548.752,6.794,6.794,0,0,1,.408.795l-.988.43A6.684,6.684,0,0,0,21.443,40.892Zm1.343-.521.929-.392a6.245,6.245,0,0,1,.961,1.493l-.951.44a8,8,0,0,0-.44-.838Q23.113,40.805,22.786,40.371Z" transform="translate(0 0)"/>
      <path d="M28.025,43.513a14.86,14.86,0,0,1-1.547-.264c-.132-.024-.261-.048-.387-.069l.124-1.45a8.229,8.229,0,0,0,1.987.392,11.656,11.656,0,0,0,.188-1.842l1.735.15a11.46,11.46,0,0,0-.338,1.734,10.758,10.758,0,0,0,2.449-.252l-.054,1.547-.8.069q-.773.064-1.418.064l-.408,0q-.092.606-.183,1.354h.36a9.144,9.144,0,0,0,2.212-.226l-.037,1.5c-.075,0-.19.017-.344.038a13.223,13.223,0,0,1-1.687.1c-.161,0-.362,0-.6-.011a5.659,5.659,0,0,0-.038.672,1.319,1.319,0,0,0,.376,1.031,1.877,1.877,0,0,0,1.284.387,2.836,2.836,0,0,0,1.208-.231,1.357,1.357,0,0,0,.849-1.337,2.089,2.089,0,0,0-.338-1.085,3.531,3.531,0,0,0-.623-.769,5.354,5.354,0,0,0,1.633-.316,5.021,5.021,0,0,1,.516.735,3.262,3.262,0,0,1,.44,1.6,2.607,2.607,0,0,1-.7,1.815,3.2,3.2,0,0,1-1.354.859,4.856,4.856,0,0,1-1.584.242,3.928,3.928,0,0,1-2.095-.494,2.3,2.3,0,0,1-.929-1.016,3.191,3.191,0,0,1-.247-1.326q0-.36.043-.865a14.855,14.855,0,0,1-1.488-.236q-.172-.037-.43-.064l.124-1.5a8.3,8.3,0,0,0,1.923.4Q27.923,44.206,28.025,43.513Z" transform="translate(0 0)"/>
      <path d="M38.124,40.506l1.7-.264a11.181,11.181,0,0,0,.215,1.435q.226,1.128.462,1.923.645-.237,2.782-.9a3.138,3.138,0,0,0,.435-.167l.548,1.671q-.81.145-1.644.37a13.437,13.437,0,0,0-3.588,1.375,1.535,1.535,0,0,0-.821,1.2.807.807,0,0,0,.258.6,3.246,3.246,0,0,0,2.089.446,14.01,14.01,0,0,0,3.1-.317q.328-.075.586-.161l.129,1.794q-.248.006-.93.075a27.082,27.082,0,0,1-2.755.178,7.487,7.487,0,0,1-2.605-.36,2.411,2.411,0,0,1-1.229-.918,2.347,2.347,0,0,1-.354-1.284,2.576,2.576,0,0,1,.445-1.461,4.385,4.385,0,0,1,1.488-1.268c.125-.071.313-.17.563-.295q-.333-1.107-.709-2.943A6.158,6.158,0,0,0,38.124,40.506Z" transform="translate(0 0)"/>
      <path d="M47.875,40.586a10.482,10.482,0,0,0-.091,1.521v5.9a10.412,10.412,0,0,0,.091,1.521H45.851a10.552,10.552,0,0,0,.091-1.521v-5.9a10.633,10.633,0,0,0-.091-1.521Z" transform="translate(0 0)"/>
      <path d="M52.711,42.2v5.779a11.544,11.544,0,0,0,.092,1.547H50.777a11.138,11.138,0,0,0,.086-1.547V42.2h-1.4a11.436,11.436,0,0,0-1.579.08V40.51a12.386,12.386,0,0,0,1.568.075h4.571a12.96,12.96,0,0,0,1.665-.075v1.772a12.527,12.527,0,0,0-1.665-.08Z" transform="translate(0 0)"/>
    </g>
    <g>
      <path d="M12.365,17.8l.1,1.08q-.172.016-.4.048a18.041,18.041,0,0,1-2.9.252A7.715,7.715,0,0,1,6.5,18.836a1.771,1.771,0,0,1-1.3-1.708A2.313,2.313,0,0,1,5.753,15.7a5.615,5.615,0,0,1,.757-.773l.677.51a2.264,2.264,0,0,0-1.031,1.579q0,.72.9,1.01a6.96,6.96,0,0,0,1.987.2,14.724,14.724,0,0,0,2.154-.15A5.311,5.311,0,0,0,12.365,17.8ZM5.807,12.2l.081-.94a12.89,12.89,0,0,0,2.949.263,13.849,13.849,0,0,0,2.9-.215l.054.881a10.576,10.576,0,0,0-1.123.591q-.795.472-1.7,1.123l-.671-.537q.967-.639,1.848-1.112a11.6,11.6,0,0,1-1.627.118,19.35,19.35,0,0,1-2.336-.134C6.038,12.222,5.914,12.21,5.807,12.2Z" transform="translate(0 0)"/>
      <path d="M17.5,10.677l1.026-.183a10.451,10.451,0,0,0,.231,1.423q.306,1.375.569,2.165.7-.285,2.61-.945a5.721,5.721,0,0,0,.725-.285l.376.988q-.6.129-1.429.392-1.681.532-2.476.881a5.3,5.3,0,0,0-1.649,1.047,1.509,1.509,0,0,0-.462,1.063q0,.854,1.058,1.133a7.378,7.378,0,0,0,1.783.161,14.934,14.934,0,0,0,2.6-.215,4.853,4.853,0,0,0,.682-.172l.1,1.08q-.237.005-.833.07-1.466.15-2.5.15a11.759,11.759,0,0,1-1.74-.118,3.557,3.557,0,0,1-1.214-.414,1.744,1.744,0,0,1-.881-1.251,2.382,2.382,0,0,1-.038-.419,2.221,2.221,0,0,1,.435-1.311,5.413,5.413,0,0,1,2-1.493,25.41,25.41,0,0,1-.784-3.045A6.21,6.21,0,0,0,17.5,10.677Zm3.663.215.645-.3a8.532,8.532,0,0,1,1,1.542l-.65.322a8.96,8.96,0,0,0-.44-.8A5.422,5.422,0,0,0,21.16,10.892Zm1.155-.489.623-.3a7.434,7.434,0,0,1,1,1.509l-.639.328A6.622,6.622,0,0,0,22.315,10.4Z" transform="translate(0 0)"/>
      <path d="M28.688,13.315a16.038,16.038,0,0,1-1.617-.29q-.156-.032-.354-.07l.1-.87a5.3,5.3,0,0,0,.865.252,9.309,9.309,0,0,0,1.112.167,14.717,14.717,0,0,0,.252-2.089l1.047.107a4.88,4.88,0,0,0-.172.736q-.188,1.149-.209,1.294.29.005.408.005a9.819,9.819,0,0,0,2.2-.193l-.037.908-.8.07q-.536.043-1.025.043-.253,0-.881-.016l-.027.2q-.161,1.128-.22,1.66.467.011.682.011a8.757,8.757,0,0,0,2.041-.188l-.026.886c-.079,0-.183.013-.312.027a13.383,13.383,0,0,1-1.552.091q-.349,0-.9-.021c0,.054-.011.125-.021.215q-.037.392-.038.747a1.579,1.579,0,0,0,.478,1.262,2.215,2.215,0,0,0,1.5.457,3.069,3.069,0,0,0,1.375-.285,1.643,1.643,0,0,0,.993-1.568,2.542,2.542,0,0,0-1.036-1.9,3.239,3.239,0,0,0,.961-.231,5.828,5.828,0,0,1,.511.628,2.814,2.814,0,0,1,.516,1.6,2.355,2.355,0,0,1-.489,1.472,2.9,2.9,0,0,1-1.375.951,4.465,4.465,0,0,1-1.45.22,3.176,3.176,0,0,1-2.148-.666,2.443,2.443,0,0,1-.741-1.955q0-.333.059-1.01a14.492,14.492,0,0,1-1.617-.269,2.229,2.229,0,0,0-.365-.064l.1-.9a7.273,7.273,0,0,0,1.96.43Q28.521,14.432,28.688,13.315Z" transform="translate(0 0)"/>
      <path d="M39.347,10.608l1.025-.183a10.609,10.609,0,0,0,.231,1.418q.306,1.381.569,2.17.7-.285,2.61-.945a5.064,5.064,0,0,0,.725-.29l.376.994q-.6.129-1.429.387a24.818,24.818,0,0,0-2.476.886,5.375,5.375,0,0,0-1.649,1.042,1.529,1.529,0,0,0-.462,1.069q0,.854,1.059,1.133a7.373,7.373,0,0,0,1.783.161,14.881,14.881,0,0,0,2.6-.215,4.863,4.863,0,0,0,.682-.172l.1,1.08q-.242.005-.832.07a24.693,24.693,0,0,1-2.5.15,11.75,11.75,0,0,1-1.74-.118,3.554,3.554,0,0,1-1.214-.414,1.728,1.728,0,0,1-.881-1.251,2.369,2.369,0,0,1-.038-.424,2.214,2.214,0,0,1,.436-1.305,5.4,5.4,0,0,1,2-1.493,25.718,25.718,0,0,1-.784-3.045A5.889,5.889,0,0,0,39.347,10.608Z" transform="translate(0 0)"/>
      <path d="M48.9,10.812a8.626,8.626,0,0,0-.092,1.284V18a7.679,7.679,0,0,0,.092,1.284H47.68A8.285,8.285,0,0,0,47.766,18V12.1a8.093,8.093,0,0,0-.086-1.284Z" transform="translate(0 0)"/>
      <path d="M53.778,11.741v6.252a7.416,7.416,0,0,0,.092,1.294H52.656a6.429,6.429,0,0,0,.086-1.294V11.741H51.088a8.731,8.731,0,0,0-1.332.075V10.731a8.83,8.83,0,0,0,1.327.081h4.3a8.258,8.258,0,0,0,1.385-.081v1.085a9.008,9.008,0,0,0-1.385-.075Z" transform="translate(0 0)"/>
    </g>
  </g>
</svg>
