<?xml version="1.0" encoding="UTF-8" standalone="no"?>
<svg xmlns="http://www.w3.org/2000/svg" version="1.1" x="0" y="0" width="61px" height="60px" viewBox="0 0 61 60">
 <polyline class="pointer" points="0,0 61,0 61,30, 0,30" fill="#fff"></polyline>
 <g transform="translate(-1,-2)" fill="#000" stroke="#000" stroke-linejoin="round" stroke-linecap="round" stroke-width="0.1">
  <path d="M19.014,15.266c-0.121,1.617-0.241,2.277-0.594,3.092c-0.396,0.902-1.023,1.672-1.881,2.311 c-0.463,0.341-0.892,0.583-1.694,0.979c-0.154-0.341-0.253-0.473-0.539-0.704c0.957-0.363,1.65-0.781,2.321-1.43 c1.012-0.969,1.474-2.2,1.573-4.247h-3.037c-0.627,1.001-1.122,1.606-1.914,2.332c-0.198-0.253-0.297-0.329-0.648-0.517 c1.012-0.803,1.737-1.738,2.354-3.036c0.33-0.704,0.474-1.09,0.562-1.54l0.836,0.264c-0.099,0.198-0.132,0.253-0.275,0.604 c-0.253,0.584-0.439,0.99-0.571,1.199c0.176-0.011,0.176-0.011,5.115-0.011c0.693,0,0.902-0.011,1.354-0.065v0.803 c-0.297-0.022-0.297-0.022-1.364-0.033H19.014z"></path>
  <path d="M23.38,16.63c0.319,0.055,0.616,0.066,1.364,0.066h6.393c0.813,0,0.99-0.012,1.331-0.056v0.892 c-0.353-0.033-0.605-0.044-1.343-0.044h-6.381c-0.803,0-1.034,0.011-1.364,0.044V16.63z"></path>
  <path d="M38.418,12.472c-0.144,0.209-0.144,0.209-0.385,0.726c-0.1,0.209-0.209,0.396-0.342,0.605 c0.154-0.022,0.154-0.022,3.399-0.055c0.275-0.012,0.474-0.045,0.639-0.11l0.495,0.495c-0.121,0.176-0.132,0.209-0.319,0.726 c-0.759,2.047-1.728,3.631-2.871,4.731c-0.925,0.88-2.014,1.595-3.477,2.266c-0.176-0.33-0.275-0.451-0.539-0.682 c0.935-0.363,1.529-0.683,2.277-1.199c0.857-0.594,1.364-1.045,1.903-1.738c-0.792-0.715-1.596-1.287-2.465-1.782l0.506-0.562 c0.936,0.539,1.541,0.969,2.432,1.705c0.649-0.979,1.145-2.023,1.529-3.19l-3.851,0.056c-0.748,1.199-1.529,2.057-2.618,2.926 c-0.253-0.285-0.353-0.362-0.639-0.527c1.188-0.858,2.091-1.87,2.806-3.136c0.353-0.638,0.562-1.111,0.649-1.507L38.418,12.472z"></path>
  <path d="M52.048,13.109c-0.198,0.144-0.209,0.165-0.484,0.462c-0.693,0.727-1.628,1.529-2.574,2.212v4.687 c0,0.627,0.011,0.869,0.055,1.166h-0.957c0.055-0.286,0.066-0.539,0.066-1.145v-4.181c-1.431,0.881-2.233,1.243-4.247,1.926 c-0.154-0.353-0.209-0.462-0.429-0.737c2.068-0.539,3.972-1.485,5.709-2.85c1.023-0.792,1.794-1.562,2.102-2.079L52.048,13.109z"></path>
 </g>
 <polyline class="pointer" points="0,30 26,30 30,34 34,30 61,30 61,60, 0,60" fill="#fff" fill-opacity="0.8"></polyline>
 <g transform="translate(-1,28)" fill="#000" stroke="#000" stroke-linejoin="round" stroke-linecap="round" stroke-width="0.5">
  <path d="M19.014,15.266c-0.121,1.617-0.241,2.277-0.594,3.092c-0.396,0.902-1.023,1.672-1.881,2.311 c-0.463,0.341-0.892,0.583-1.694,0.979c-0.154-0.341-0.253-0.473-0.539-0.704c0.957-0.363,1.65-0.781,2.321-1.43 c1.012-0.969,1.474-2.2,1.573-4.247h-3.037c-0.627,1.001-1.122,1.606-1.914,2.332c-0.198-0.253-0.297-0.329-0.648-0.517 c1.012-0.803,1.737-1.738,2.354-3.036c0.33-0.704,0.474-1.09,0.562-1.54l0.836,0.264c-0.099,0.198-0.132,0.253-0.275,0.604 c-0.253,0.584-0.439,0.99-0.571,1.199c0.176-0.011,0.176-0.011,5.115-0.011c0.693,0,0.902-0.011,1.354-0.065v0.803 c-0.297-0.022-0.297-0.022-1.364-0.033H19.014z"></path>
  <path d="M23.38,16.63c0.319,0.055,0.616,0.066,1.364,0.066h6.393c0.813,0,0.99-0.012,1.331-0.056v0.892 c-0.353-0.033-0.605-0.044-1.343-0.044h-6.381c-0.803,0-1.034,0.011-1.364,0.044V16.63z"></path>
  <path d="M38.418,12.472c-0.144,0.209-0.144,0.209-0.385,0.726c-0.1,0.209-0.209,0.396-0.342,0.605 c0.154-0.022,0.154-0.022,3.399-0.055c0.275-0.012,0.474-0.045,0.639-0.11l0.495,0.495c-0.121,0.176-0.132,0.209-0.319,0.726 c-0.759,2.047-1.728,3.631-2.871,4.731c-0.925,0.88-2.014,1.595-3.477,2.266c-0.176-0.33-0.275-0.451-0.539-0.682 c0.935-0.363,1.529-0.683,2.277-1.199c0.857-0.594,1.364-1.045,1.903-1.738c-0.792-0.715-1.596-1.287-2.465-1.782l0.506-0.562 c0.936,0.539,1.541,0.969,2.432,1.705c0.649-0.979,1.145-2.023,1.529-3.19l-3.851,0.056c-0.748,1.199-1.529,2.057-2.618,2.926 c-0.253-0.285-0.353-0.362-0.639-0.527c1.188-0.858,2.091-1.87,2.806-3.136c0.353-0.638,0.562-1.111,0.649-1.507L38.418,12.472z"></path>
  <path d="M52.048,13.109c-0.198,0.144-0.209,0.165-0.484,0.462c-0.693,0.727-1.628,1.529-2.574,2.212v4.687 c0,0.627,0.011,0.869,0.055,1.166h-0.957c0.055-0.286,0.066-0.539,0.066-1.145v-4.181c-1.431,0.881-2.233,1.243-4.247,1.926 c-0.154-0.353-0.209-0.462-0.429-0.737c2.068-0.539,3.972-1.485,5.709-2.85c1.023-0.792,1.794-1.562,2.102-2.079L52.048,13.109z"></path>
 </g>
</svg>
