<?xml version="1.0" encoding="UTF-8" standalone="no"?>
<svg xmlns="http://www.w3.org/2000/svg" version="1.1" x="0" y="0" width="61px" height="60px" viewBox="0 0 61 60">
 <polyline class="pointer" points="0,0 61,0 61,30, 0,30" fill="#fff"></polyline>
 <g transform="translate(-1,-2)" fill="#000" stroke="#000" stroke-linejoin="round" stroke-linecap="round" stroke-width="0.1">
  <path d="M25.199,21.239c0.066-0.396,0.088-0.715,0.088-1.231V14.1c0-0.451-0.022-0.792-0.088-1.254 c0.396,0.021,0.704,0.033,1.21,0.033h2.245c1.694,0,2.651,0.869,2.651,2.397c0,1.617-0.99,2.553-2.707,2.553h-2.453v2.167 c0,0.528,0.022,0.869,0.088,1.243H25.199z M28.599,17.07c1.166,0,1.826-0.627,1.826-1.749c0-1.101-0.638-1.684-1.826-1.684 h-2.453v3.433H28.599z"></path>
  <path d="M38.422,15.255c-0.165-0.474-0.286-0.704-0.517-0.968c-0.44-0.518-1.1-0.793-1.903-0.793 c-1.782,0-2.904,1.364-2.904,3.554c0,2.179,1.133,3.564,2.904,3.564c0.869,0,1.606-0.33,2.057-0.924 c0.231-0.319,0.341-0.594,0.44-1.101l0.914,0.221c-0.187,0.648-0.33,0.957-0.594,1.309c-0.616,0.825-1.617,1.276-2.85,1.276 c-1.056,0-1.947-0.33-2.574-0.968c-0.77-0.771-1.188-1.97-1.188-3.345c0-1.419,0.44-2.618,1.254-3.422 c0.638-0.615,1.474-0.935,2.52-0.935c1.034,0,1.87,0.297,2.464,0.891c0.385,0.374,0.594,0.704,0.858,1.387L38.422,15.255z"></path>
 </g>
 <polyline class="pointer" points="0,30 26,30 30,34 34,30 61,30 61,60, 0,60" fill="#fff" fill-opacity="0.8"></polyline>
 <g transform="translate(-1,28)" fill="#000" stroke="#000" stroke-linejoin="round" stroke-linecap="round" stroke-width="0.5">
  <path d="M25.199,21.239c0.066-0.396,0.088-0.715,0.088-1.231V14.1c0-0.451-0.022-0.792-0.088-1.254 c0.396,0.021,0.704,0.033,1.21,0.033h2.245c1.694,0,2.651,0.869,2.651,2.397c0,1.617-0.99,2.553-2.707,2.553h-2.453v2.167 c0,0.528,0.022,0.869,0.088,1.243H25.199z M28.599,17.07c1.166,0,1.826-0.627,1.826-1.749c0-1.101-0.638-1.684-1.826-1.684 h-2.453v3.433H28.599z"></path>
  <path d="M38.422,15.255c-0.165-0.474-0.286-0.704-0.517-0.968c-0.44-0.518-1.1-0.793-1.903-0.793 c-1.782,0-2.904,1.364-2.904,3.554c0,2.179,1.133,3.564,2.904,3.564c0.869,0,1.606-0.33,2.057-0.924 c0.231-0.319,0.341-0.594,0.44-1.101l0.914,0.221c-0.187,0.648-0.33,0.957-0.594,1.309c-0.616,0.825-1.617,1.276-2.85,1.276 c-1.056,0-1.947-0.33-2.574-0.968c-0.77-0.771-1.188-1.97-1.188-3.345c0-1.419,0.44-2.618,1.254-3.422 c0.638-0.615,1.474-0.935,2.52-0.935c1.034,0,1.87,0.297,2.464,0.891c0.385,0.374,0.594,0.704,0.858,1.387L38.422,15.255z"></path>
 </g>
</svg>
