<?xml version="1.0" encoding="UTF-8" standalone="no"?>
<svg xmlns="http://www.w3.org/2000/svg" version="1.1" x="0" y="0" width="61px" height="60px" viewBox="0 0 61 60">
 <polyline class="pointer" points="0,0 61,0 61,30, 0,30" fill="#fff"></polyline>
 <g transform="translate(-1,-2)" fill="#000" stroke="#000" stroke-linejoin="round" stroke-linecap="round" stroke-width="0.1">
  <path d="M14.38,21.646c0.044-0.297,0.066-0.561,0.066-1.155v-6.832c0-0.583-0.022-0.847-0.066-1.122h0.946 c-0.044,0.286-0.055,0.518-0.055,1.145v2.058c1.694,0.604,2.971,1.21,4.896,2.321l-0.473,0.813 c-1.034-0.726-2.553-1.54-4.104-2.178c-0.165-0.066-0.242-0.11-0.342-0.188l-0.021,0.011c0.033,0.221,0.044,0.374,0.044,0.649 v3.312c0,0.616,0.011,0.858,0.055,1.166H14.38z"></path>
  <path d="M21.97,15.53c0.396,0.055,0.627,0.065,1.287,0.065H28.9c0.407,0,0.528-0.011,0.716-0.077l0.406,0.474 c-0.099,0.153-0.121,0.209-0.308,0.692c-0.936,2.563-2.453,3.972-5.303,4.929c-0.132-0.318-0.209-0.439-0.474-0.759 c1.475-0.418,2.442-0.913,3.268-1.672c0.781-0.716,1.276-1.529,1.782-2.883h-5.742c-0.583,0-0.902,0.011-1.276,0.055V15.53z M22.916,12.978c0.318,0.066,0.539,0.077,1.155,0.077h3.674c0.616,0,0.837-0.011,1.155-0.077v0.847 c-0.297-0.044-0.561-0.055-1.144-0.055H24.06c-0.583,0-0.847,0.011-1.144,0.055V12.978z"></path>
  <path d="M31.1,17.829c0.154-0.088,0.231-0.154,0.363-0.275c0.33-0.318,1.343-1.54,1.882-2.255 c0.627-0.836,0.901-1.045,1.396-1.045c0.44,0,0.616,0.132,1.42,1.012c1.231,1.354,2.552,2.618,3.762,3.598 c0.518,0.418,0.693,0.55,0.913,0.66l-0.418,0.902c-0.242-0.221-0.253-0.231-0.979-0.848c-1.013-0.847-2.244-2.057-3.729-3.652 c-0.727-0.781-0.771-0.814-0.99-0.814c-0.221,0-0.275,0.056-0.76,0.704c-0.429,0.584-1.287,1.64-1.991,2.454 c-0.077,0.088-0.165,0.197-0.308,0.385L31.1,17.829z M38.063,13.703c0.484,0.507,0.771,0.881,1.167,1.519l-0.583,0.309 c-0.363-0.628-0.639-1.002-1.145-1.552L38.063,13.703z M39.164,13.12c0.484,0.507,0.771,0.869,1.166,1.519l-0.583,0.308 c-0.363-0.627-0.638-1.012-1.144-1.551L39.164,13.12z"></path>
  <path d="M44.817,12.978c-0.044,0.275-0.044,0.275-0.066,0.946c-0.088,2.981-0.176,3.795-0.594,4.906 c-0.374,1.023-0.902,1.761-1.903,2.718c-0.22-0.286-0.33-0.385-0.66-0.594c0.902-0.716,1.496-1.508,1.859-2.531 c0.341-0.957,0.495-2.398,0.495-4.72c0-0.396-0.012-0.527-0.044-0.78L44.817,12.978z M47.546,12.856 c-0.056,0.264-0.066,0.462-0.066,0.968l-0.066,6.646c0.913-0.341,1.475-0.693,2.047-1.276c0.604-0.627,1.034-1.354,1.298-2.2 c0.231,0.297,0.319,0.396,0.616,0.638c-0.539,1.266-1.265,2.179-2.211,2.828c-0.484,0.33-0.925,0.55-1.573,0.803 c-0.198,0.077-0.198,0.077-0.353,0.132c-0.132,0.055-0.154,0.066-0.253,0.121l-0.44-0.506c0.066-0.188,0.077-0.275,0.077-0.748 l0.066-6.437c0-0.715,0-0.715-0.044-0.979L47.546,12.856z"></path>
 </g>
 <polyline class="pointer" points="0,30 26,30 30,34 34,30 61,30 61,60, 0,60" fill="#fff" fill-opacity="0.8"></polyline>
 <g transform="translate(-1,28)" fill="#000" stroke="#000" stroke-linejoin="round" stroke-linecap="round" stroke-width="0.5">
  <path d="M14.38,21.646c0.044-0.297,0.066-0.561,0.066-1.155v-6.832c0-0.583-0.022-0.847-0.066-1.122h0.946 c-0.044,0.286-0.055,0.518-0.055,1.145v2.058c1.694,0.604,2.971,1.21,4.896,2.321l-0.473,0.813 c-1.034-0.726-2.553-1.54-4.104-2.178c-0.165-0.066-0.242-0.11-0.342-0.188l-0.021,0.011c0.033,0.221,0.044,0.374,0.044,0.649 v3.312c0,0.616,0.011,0.858,0.055,1.166H14.38z"></path>
  <path d="M21.97,15.53c0.396,0.055,0.627,0.065,1.287,0.065H28.9c0.407,0,0.528-0.011,0.716-0.077l0.406,0.474 c-0.099,0.153-0.121,0.209-0.308,0.692c-0.936,2.563-2.453,3.972-5.303,4.929c-0.132-0.318-0.209-0.439-0.474-0.759 c1.475-0.418,2.442-0.913,3.268-1.672c0.781-0.716,1.276-1.529,1.782-2.883h-5.742c-0.583,0-0.902,0.011-1.276,0.055V15.53z M22.916,12.978c0.318,0.066,0.539,0.077,1.155,0.077h3.674c0.616,0,0.837-0.011,1.155-0.077v0.847 c-0.297-0.044-0.561-0.055-1.144-0.055H24.06c-0.583,0-0.847,0.011-1.144,0.055V12.978z"></path>
  <path d="M31.1,17.829c0.154-0.088,0.231-0.154,0.363-0.275c0.33-0.318,1.343-1.54,1.882-2.255 c0.627-0.836,0.901-1.045,1.396-1.045c0.44,0,0.616,0.132,1.42,1.012c1.231,1.354,2.552,2.618,3.762,3.598 c0.518,0.418,0.693,0.55,0.913,0.66l-0.418,0.902c-0.242-0.221-0.253-0.231-0.979-0.848c-1.013-0.847-2.244-2.057-3.729-3.652 c-0.727-0.781-0.771-0.814-0.99-0.814c-0.221,0-0.275,0.056-0.76,0.704c-0.429,0.584-1.287,1.64-1.991,2.454 c-0.077,0.088-0.165,0.197-0.308,0.385L31.1,17.829z M38.063,13.703c0.484,0.507,0.771,0.881,1.167,1.519l-0.583,0.309 c-0.363-0.628-0.639-1.002-1.145-1.552L38.063,13.703z M39.164,13.12c0.484,0.507,0.771,0.869,1.166,1.519l-0.583,0.308 c-0.363-0.627-0.638-1.012-1.144-1.551L39.164,13.12z"></path>
  <path d="M44.817,12.978c-0.044,0.275-0.044,0.275-0.066,0.946c-0.088,2.981-0.176,3.795-0.594,4.906 c-0.374,1.023-0.902,1.761-1.903,2.718c-0.22-0.286-0.33-0.385-0.66-0.594c0.902-0.716,1.496-1.508,1.859-2.531 c0.341-0.957,0.495-2.398,0.495-4.72c0-0.396-0.012-0.527-0.044-0.78L44.817,12.978z M47.546,12.856 c-0.056,0.264-0.066,0.462-0.066,0.968l-0.066,6.646c0.913-0.341,1.475-0.693,2.047-1.276c0.604-0.627,1.034-1.354,1.298-2.2 c0.231,0.297,0.319,0.396,0.616,0.638c-0.539,1.266-1.265,2.179-2.211,2.828c-0.484,0.33-0.925,0.55-1.573,0.803 c-0.198,0.077-0.198,0.077-0.353,0.132c-0.132,0.055-0.154,0.066-0.253,0.121l-0.44-0.506c0.066-0.188,0.077-0.275,0.077-0.748 l0.066-6.437c0-0.715,0-0.715-0.044-0.979L47.546,12.856z"></path>
 </g>
</svg>
