<?xml version="1.0" encoding="UTF-8" standalone="no"?>
<svg xmlns="http://www.w3.org/2000/svg" version="1.1" x="0" y="0" width="61px" height="60px" viewBox="0 0 61 60">
 <polyline class="pointer" points="0,0 61,0 61,30, 0,30" fill="#fff"></polyline>
 <g transform="translate(-1,-2)" fill="#000" stroke="#000" stroke-linejoin="round" stroke-linecap="round" stroke-width="0.1">
  <path d="M21.361,19.634c0.044,0.121,0.154,0.439,0.264,0.77c0.11-0.341,0.177-0.539,0.253-0.77l2.068-5.633 c0.198-0.518,0.286-0.837,0.319-1.122h1.145c-0.176,0.297-0.286,0.561-0.562,1.275l-2.354,6.062 c-0.187,0.483-0.286,0.792-0.341,1.022h-1.067c-0.044-0.23-0.121-0.45-0.352-1.022l-2.354-6.062 c-0.242-0.638-0.429-1.045-0.562-1.275h1.134c0.065,0.352,0.176,0.715,0.319,1.122L21.361,19.634z"></path>
  <path d="M27.389,12.879v0.979h-1.067v-0.979H27.389z M27.345,15.31c-0.055,0.386-0.077,0.693-0.077,1.243v3.443 c0,0.507,0.022,0.814,0.077,1.243h-0.99c0.055-0.473,0.077-0.78,0.077-1.243v-3.443c0-0.528-0.022-0.857-0.077-1.243H27.345z"></path>
  <path d="M33.604,20.7c0-0.153,0.011-0.352,0.033-0.539c-0.518,0.804-1.232,1.188-2.233,1.188c-1.694,0-2.729-1.166-2.729-3.08 c0-1.882,1.056-3.081,2.706-3.081c1.001,0,1.771,0.407,2.256,1.166l-0.011-0.165c-0.033-0.23-0.033-0.329-0.033-0.583v-1.474 c0-0.518-0.022-0.836-0.077-1.254h0.968c-0.055,0.439-0.077,0.759-0.077,1.243v5.853c0,0.55,0.022,0.836,0.077,1.265h-0.88V20.7z M29.545,18.247c0,0.727,0.165,1.354,0.451,1.717c0.341,0.429,0.858,0.66,1.474,0.66c1.288,0,2.112-0.936,2.112-2.388 c0-0.727-0.22-1.364-0.615-1.749c-0.386-0.374-0.913-0.583-1.497-0.583C30.271,15.904,29.545,16.784,29.545,18.247z"></path>
  <path d="M36.618,18.401c0.032,0.737,0.143,1.145,0.439,1.54c0.353,0.484,0.892,0.748,1.552,0.748c0.891,0,1.507-0.44,1.815-1.287 l0.77,0.308c-0.209,0.463-0.352,0.66-0.604,0.914c-0.518,0.506-1.188,0.77-1.992,0.77c-1.727,0-2.816-1.21-2.816-3.113 c0-1.881,1.079-3.113,2.729-3.113c1.42,0,2.442,0.913,2.663,2.387c0.011,0.121,0.055,0.551,0.076,0.848H36.618z M40.369,17.708 c-0.065-0.616-0.23-1.012-0.583-1.354c-0.341-0.33-0.77-0.494-1.298-0.494c-0.671,0-1.232,0.341-1.562,0.957 c-0.154,0.274-0.209,0.473-0.275,0.891H40.369z"></path>
  <path d="M42.249,18.28c0-1.903,1.145-3.113,2.938-3.113c1.794,0,2.927,1.21,2.927,3.103c0,1.881-1.145,3.113-2.915,3.113 C43.394,21.383,42.249,20.184,42.249,18.28z M43.097,18.258c0,1.497,0.803,2.41,2.09,2.41s2.08-0.913,2.08-2.398 s-0.793-2.409-2.058-2.409C43.899,15.86,43.097,16.773,43.097,18.258z"></path>
 </g>
 <polyline class="pointer" points="0,30 26,30 30,34 34,30 61,30 61,60, 0,60" fill="#fff" fill-opacity="0.8"></polyline>
 <g transform="translate(-1,28)" fill="#000" stroke="#000" stroke-linejoin="round" stroke-linecap="round" stroke-width="0.5">
  <path d="M21.361,19.634c0.044,0.121,0.154,0.439,0.264,0.77c0.11-0.341,0.177-0.539,0.253-0.77l2.068-5.633 c0.198-0.518,0.286-0.837,0.319-1.122h1.145c-0.176,0.297-0.286,0.561-0.562,1.275l-2.354,6.062 c-0.187,0.483-0.286,0.792-0.341,1.022h-1.067c-0.044-0.23-0.121-0.45-0.352-1.022l-2.354-6.062 c-0.242-0.638-0.429-1.045-0.562-1.275h1.134c0.065,0.352,0.176,0.715,0.319,1.122L21.361,19.634z"></path>
  <path d="M27.389,12.879v0.979h-1.067v-0.979H27.389z M27.345,15.31c-0.055,0.386-0.077,0.693-0.077,1.243v3.443 c0,0.507,0.022,0.814,0.077,1.243h-0.99c0.055-0.473,0.077-0.78,0.077-1.243v-3.443c0-0.528-0.022-0.857-0.077-1.243H27.345z"></path>
  <path d="M33.604,20.7c0-0.153,0.011-0.352,0.033-0.539c-0.518,0.804-1.232,1.188-2.233,1.188c-1.694,0-2.729-1.166-2.729-3.08 c0-1.882,1.056-3.081,2.706-3.081c1.001,0,1.771,0.407,2.256,1.166l-0.011-0.165c-0.033-0.23-0.033-0.329-0.033-0.583v-1.474 c0-0.518-0.022-0.836-0.077-1.254h0.968c-0.055,0.439-0.077,0.759-0.077,1.243v5.853c0,0.55,0.022,0.836,0.077,1.265h-0.88V20.7z M29.545,18.247c0,0.727,0.165,1.354,0.451,1.717c0.341,0.429,0.858,0.66,1.474,0.66c1.288,0,2.112-0.936,2.112-2.388 c0-0.727-0.22-1.364-0.615-1.749c-0.386-0.374-0.913-0.583-1.497-0.583C30.271,15.904,29.545,16.784,29.545,18.247z"></path>
  <path d="M36.618,18.401c0.032,0.737,0.143,1.145,0.439,1.54c0.353,0.484,0.892,0.748,1.552,0.748c0.891,0,1.507-0.44,1.815-1.287 l0.77,0.308c-0.209,0.463-0.352,0.66-0.604,0.914c-0.518,0.506-1.188,0.77-1.992,0.77c-1.727,0-2.816-1.21-2.816-3.113 c0-1.881,1.079-3.113,2.729-3.113c1.42,0,2.442,0.913,2.663,2.387c0.011,0.121,0.055,0.551,0.076,0.848H36.618z M40.369,17.708 c-0.065-0.616-0.23-1.012-0.583-1.354c-0.341-0.33-0.77-0.494-1.298-0.494c-0.671,0-1.232,0.341-1.562,0.957 c-0.154,0.274-0.209,0.473-0.275,0.891H40.369z"></path>
  <path d="M42.249,18.28c0-1.903,1.145-3.113,2.938-3.113c1.794,0,2.927,1.21,2.927,3.103c0,1.881-1.145,3.113-2.915,3.113 C43.394,21.383,42.249,20.184,42.249,18.28z M43.097,18.258c0,1.497,0.803,2.41,2.09,2.41s2.08-0.913,2.08-2.398 s-0.793-2.409-2.058-2.409C43.899,15.86,43.097,16.773,43.097,18.258z"></path>
 </g>
</svg>
