<?xml version="1.0" encoding="UTF-8" standalone="no"?>
<svg xmlns="http://www.w3.org/2000/svg" version="1.1" x="0" y="0" width="61px" height="60px" viewBox="0 0 61 60">
 <polyline class="pointer" points="0,0 61,0 61,30, 0,30" fill="#fff"></polyline>
 <g transform="translate(-1,-2)" fill="#000" stroke="#000" stroke-linejoin="round" stroke-linecap="round" stroke-width="0.1">
  <path d="M16.679,21.118c0.672-0.803,0.958-1.342,1.299-2.409l0.616,0.309c-0.396,1.144-0.716,1.76-1.331,2.552L16.679,21.118z M21.003,12.834c0-0.318-0.022-0.517-0.066-0.759h0.825c-0.044,0.231-0.065,0.44-0.065,0.759v0.298h3.366 c0.473,0,0.759-0.012,1.111-0.044c-0.033,0.22-0.044,0.406-0.044,0.748v0.439c0,0.418,0.011,0.671,0.044,0.881h-0.727v-1.42 h-2.794v1.166c0,0.209,0.088,0.254,0.527,0.254c0.825,0,1.134-0.033,1.222-0.133c0.088-0.099,0.121-0.23,0.143-0.77 c0.254,0.121,0.319,0.143,0.66,0.198c-0.065,0.692-0.165,0.968-0.374,1.078c-0.242,0.132-0.748,0.187-1.749,0.187 c-0.363,0-0.737-0.055-0.902-0.121c-0.132-0.065-0.197-0.198-0.197-0.429v-1.431h-1.243c-0.144,0.518-0.242,0.716-0.507,1.045 c-0.362,0.463-0.836,0.825-1.408,1.09c-0.297,0.132-0.704,0.264-1.331,0.439c-0.143-0.253-0.22-0.352-0.439-0.583 c0.989-0.197,1.408-0.341,1.902-0.638c0.463-0.264,0.825-0.66,0.979-1.078c0.033-0.066,0.055-0.132,0.088-0.275h-2.486v1.375 h-0.726c0.032-0.23,0.044-0.439,0.044-0.813v-0.462c0-0.309-0.012-0.507-0.044-0.748c0.352,0.032,0.638,0.044,1.111,0.044h3.08 V12.834z M21.366,15.508c-0.595,0.869-0.913,1.276-1.475,1.937c1.387-0.033,2.729-0.1,3.873-0.198 c-0.386-0.341-0.628-0.517-1.222-0.924l0.55-0.353c1.101,0.748,1.629,1.188,2.509,2.112l-0.583,0.43 c-0.341-0.386-0.462-0.528-0.704-0.76c-1.65,0.176-4.203,0.341-5.952,0.374c-0.55,0.022-0.616,0.022-1.001,0.056l-0.143-0.749 c0.374,0.022,0.615,0.033,0.924,0.033c0.011,0,0.561,0,0.957-0.011c0.649-0.759,1.21-1.562,1.529-2.223L21.366,15.508z M20.167,18.621c-0.044,0.242-0.056,0.462-0.056,0.913v1.232c0,0.451,0.088,0.484,1.529,0.484c1.287,0,1.684-0.056,1.815-0.231 c0.121-0.165,0.188-0.572,0.188-1.232c0.264,0.144,0.418,0.188,0.692,0.253c-0.088,0.936-0.209,1.387-0.462,1.562 c-0.274,0.209-0.858,0.275-2.343,0.275c-1.815,0-2.102-0.132-2.102-0.957v-1.343c0-0.473-0.011-0.671-0.055-0.957H20.167z M22.213,20.261c-0.429-0.715-0.671-1.013-1.254-1.552l0.528-0.352c0.583,0.506,0.836,0.803,1.298,1.496L22.213,20.261z M25.832,21.493c-0.638-1.232-0.935-1.673-1.716-2.586l0.562-0.319c0.715,0.771,1.154,1.387,1.771,2.465L25.832,21.493z"></path>
  <path d="M31.65,18.379c-0.638,1.452-1.287,2.112-2.079,2.112c-1.045,0-1.826-1.144-1.826-2.684c0-1.123,0.418-2.212,1.155-3.037 c0.88-0.968,2.079-1.463,3.554-1.463c1.232,0,2.311,0.385,3.025,1.089c0.693,0.671,1.067,1.628,1.067,2.685 c0,1.705-0.925,3.113-2.52,3.796c-0.495,0.209-0.913,0.341-1.673,0.506c-0.109-0.363-0.176-0.474-0.385-0.737 c0.803-0.132,1.32-0.275,1.837-0.517c1.211-0.551,1.947-1.728,1.947-3.081c0-1.254-0.638-2.267-1.749-2.761 c-0.407-0.177-0.726-0.254-1.276-0.275C32.563,15.541,32.146,17.224,31.65,18.379z M30.298,14.54 c-1.111,0.671-1.794,1.914-1.794,3.278c0,1.056,0.463,1.87,1.057,1.87c0.462,0,0.902-0.518,1.375-1.596 c0.451-1.034,0.858-2.662,1.001-4.07C31.276,14.077,30.804,14.231,30.298,14.54z"></path>
  <path d="M39.691,13.341c0-0.627-0.021-0.902-0.055-1.145h0.803c-0.044,0.297-0.055,0.594-0.055,1.133v1.067h0.814 c0.308,0,0.539-0.011,0.736-0.044v0.704c-0.264-0.021-0.462-0.033-0.736-0.033h-0.76c0.374,0.99,1.023,1.991,1.673,2.607 c-0.198,0.188-0.319,0.33-0.463,0.562c-0.561-0.671-0.945-1.364-1.309-2.344c0.033,0.881,0.044,1.354,0.044,1.794v3.256 c0,0.595,0.011,0.979,0.065,1.276h-0.824c0.044-0.33,0.065-0.682,0.065-1.276v-3.069c0-0.484,0.022-1.145,0.055-1.76 c-0.385,1.452-0.847,2.42-1.572,3.377c-0.154-0.264-0.275-0.44-0.463-0.627c0.804-0.869,1.508-2.3,1.859-3.796h-0.792 c-0.33,0-0.583,0.012-0.792,0.044v-0.715c0.176,0.033,0.429,0.044,0.803,0.044h0.902V13.341z M46.567,20.954 c0.605,0,0.913-0.022,1.199-0.066v0.814c-0.33-0.056-0.704-0.077-1.199-0.077h-4.104c-0.495,0-0.88,0.021-1.199,0.077v-0.814 c0.286,0.044,0.594,0.066,1.199,0.066h1.661v-4.676h-1.012c-0.43,0-0.781,0.021-1.134,0.055v-0.781 c0.298,0.044,0.649,0.066,1.134,0.066h1.012V13.23c0-0.352-0.021-0.627-0.077-0.979h0.881c-0.056,0.353-0.077,0.616-0.077,0.979 v2.388h1.474c0.484,0,0.825-0.022,1.134-0.066v0.781c-0.363-0.033-0.693-0.055-1.134-0.055h-1.474v4.676H46.567z"></path>
 </g>
 <polyline class="pointer" points="0,30 26,30 30,34 34,30 61,30 61,60, 0,60" fill="#fff" fill-opacity="0.8"></polyline>
 <g transform="translate(-1,28)" fill="#000" stroke="#000" stroke-linejoin="round" stroke-linecap="round" stroke-width="0.5">
  <path d="M16.679,21.118c0.672-0.803,0.958-1.342,1.299-2.409l0.616,0.309c-0.396,1.144-0.716,1.76-1.331,2.552L16.679,21.118z M21.003,12.834c0-0.318-0.022-0.517-0.066-0.759h0.825c-0.044,0.231-0.065,0.44-0.065,0.759v0.298h3.366 c0.473,0,0.759-0.012,1.111-0.044c-0.033,0.22-0.044,0.406-0.044,0.748v0.439c0,0.418,0.011,0.671,0.044,0.881h-0.727v-1.42 h-2.794v1.166c0,0.209,0.088,0.254,0.527,0.254c0.825,0,1.134-0.033,1.222-0.133c0.088-0.099,0.121-0.23,0.143-0.77 c0.254,0.121,0.319,0.143,0.66,0.198c-0.065,0.692-0.165,0.968-0.374,1.078c-0.242,0.132-0.748,0.187-1.749,0.187 c-0.363,0-0.737-0.055-0.902-0.121c-0.132-0.065-0.197-0.198-0.197-0.429v-1.431h-1.243c-0.144,0.518-0.242,0.716-0.507,1.045 c-0.362,0.463-0.836,0.825-1.408,1.09c-0.297,0.132-0.704,0.264-1.331,0.439c-0.143-0.253-0.22-0.352-0.439-0.583 c0.989-0.197,1.408-0.341,1.902-0.638c0.463-0.264,0.825-0.66,0.979-1.078c0.033-0.066,0.055-0.132,0.088-0.275h-2.486v1.375 h-0.726c0.032-0.23,0.044-0.439,0.044-0.813v-0.462c0-0.309-0.012-0.507-0.044-0.748c0.352,0.032,0.638,0.044,1.111,0.044h3.08 V12.834z M21.366,15.508c-0.595,0.869-0.913,1.276-1.475,1.937c1.387-0.033,2.729-0.1,3.873-0.198 c-0.386-0.341-0.628-0.517-1.222-0.924l0.55-0.353c1.101,0.748,1.629,1.188,2.509,2.112l-0.583,0.43 c-0.341-0.386-0.462-0.528-0.704-0.76c-1.65,0.176-4.203,0.341-5.952,0.374c-0.55,0.022-0.616,0.022-1.001,0.056l-0.143-0.749 c0.374,0.022,0.615,0.033,0.924,0.033c0.011,0,0.561,0,0.957-0.011c0.649-0.759,1.21-1.562,1.529-2.223L21.366,15.508z M20.167,18.621c-0.044,0.242-0.056,0.462-0.056,0.913v1.232c0,0.451,0.088,0.484,1.529,0.484c1.287,0,1.684-0.056,1.815-0.231 c0.121-0.165,0.188-0.572,0.188-1.232c0.264,0.144,0.418,0.188,0.692,0.253c-0.088,0.936-0.209,1.387-0.462,1.562 c-0.274,0.209-0.858,0.275-2.343,0.275c-1.815,0-2.102-0.132-2.102-0.957v-1.343c0-0.473-0.011-0.671-0.055-0.957H20.167z M22.213,20.261c-0.429-0.715-0.671-1.013-1.254-1.552l0.528-0.352c0.583,0.506,0.836,0.803,1.298,1.496L22.213,20.261z M25.832,21.493c-0.638-1.232-0.935-1.673-1.716-2.586l0.562-0.319c0.715,0.771,1.154,1.387,1.771,2.465L25.832,21.493z"></path>
  <path d="M31.65,18.379c-0.638,1.452-1.287,2.112-2.079,2.112c-1.045,0-1.826-1.144-1.826-2.684c0-1.123,0.418-2.212,1.155-3.037 c0.88-0.968,2.079-1.463,3.554-1.463c1.232,0,2.311,0.385,3.025,1.089c0.693,0.671,1.067,1.628,1.067,2.685 c0,1.705-0.925,3.113-2.52,3.796c-0.495,0.209-0.913,0.341-1.673,0.506c-0.109-0.363-0.176-0.474-0.385-0.737 c0.803-0.132,1.32-0.275,1.837-0.517c1.211-0.551,1.947-1.728,1.947-3.081c0-1.254-0.638-2.267-1.749-2.761 c-0.407-0.177-0.726-0.254-1.276-0.275C32.563,15.541,32.146,17.224,31.65,18.379z M30.298,14.54 c-1.111,0.671-1.794,1.914-1.794,3.278c0,1.056,0.463,1.87,1.057,1.87c0.462,0,0.902-0.518,1.375-1.596 c0.451-1.034,0.858-2.662,1.001-4.07C31.276,14.077,30.804,14.231,30.298,14.54z"></path>
  <path d="M39.691,13.341c0-0.627-0.021-0.902-0.055-1.145h0.803c-0.044,0.297-0.055,0.594-0.055,1.133v1.067h0.814 c0.308,0,0.539-0.011,0.736-0.044v0.704c-0.264-0.021-0.462-0.033-0.736-0.033h-0.76c0.374,0.99,1.023,1.991,1.673,2.607 c-0.198,0.188-0.319,0.33-0.463,0.562c-0.561-0.671-0.945-1.364-1.309-2.344c0.033,0.881,0.044,1.354,0.044,1.794v3.256 c0,0.595,0.011,0.979,0.065,1.276h-0.824c0.044-0.33,0.065-0.682,0.065-1.276v-3.069c0-0.484,0.022-1.145,0.055-1.76 c-0.385,1.452-0.847,2.42-1.572,3.377c-0.154-0.264-0.275-0.44-0.463-0.627c0.804-0.869,1.508-2.3,1.859-3.796h-0.792 c-0.33,0-0.583,0.012-0.792,0.044v-0.715c0.176,0.033,0.429,0.044,0.803,0.044h0.902V13.341z M46.567,20.954 c0.605,0,0.913-0.022,1.199-0.066v0.814c-0.33-0.056-0.704-0.077-1.199-0.077h-4.104c-0.495,0-0.88,0.021-1.199,0.077v-0.814 c0.286,0.044,0.594,0.066,1.199,0.066h1.661v-4.676h-1.012c-0.43,0-0.781,0.021-1.134,0.055v-0.781 c0.298,0.044,0.649,0.066,1.134,0.066h1.012V13.23c0-0.352-0.021-0.627-0.077-0.979h0.881c-0.056,0.353-0.077,0.616-0.077,0.979 v2.388h1.474c0.484,0,0.825-0.022,1.134-0.066v0.781c-0.363-0.033-0.693-0.055-1.134-0.055h-1.474v4.676H46.567z"></path>
 </g>
</svg>
